<?xml version="1.0" encoding="utf-8"?>
<!-- Generator: Adobe Illustrator 19.2.1, SVG Export Plug-In . SVG Version: 6.00 Build 0)  -->
<svg version="1.1" id="Layer_1" xmlns="http://www.w3.org/2000/svg" xmlns:xlink="http://www.w3.org/1999/xlink" x="0px" y="0px"
	 viewBox="0 0 881.2 424.9" style="enable-background:new 0 0 881.2 424.9;" xml:space="preserve">
<style type="text/css">
	.st0{fill-rule:evenodd;clip-rule:evenodd;fill:#36283D;}
	.st1{fill-rule:evenodd;clip-rule:evenodd;fill:#EC1A6B;}
	.st2{fill-rule:evenodd;clip-rule:evenodd;fill:none;}
</style>
<g>
	<path class="st0" d="M89.8,85.9c0-1,0-1.9,0-2.8c0.1-3.1,1.1-5.8,3.1-8.1c4.8-5.7,13.5-5.5,18.1,0.4c1.8,2.3,2.8,4.9,2.8,7.8
		c0,0.9,0,1.8,0,2.9c2.7,0,5.1,0.1,7.5,0c2.6-0.2,4,1.1,4.9,3.2c1.2,3,1.1,6-0.3,8.8c-0.9,1.7-2.1,2.6-4.2,2.5c-2.5-0.1-5,0-7.8,0
		c0,2,0,3.8,0,5.5c0,1.8,0,3.6,0,5.6c0.9,0.3,1.7,0.5,2.4,0.7c2.4,0.9,4.9,1.6,7.2,2.8c1.8,0.9,3.4,2.3,4.9,3.7
		c1.7,1.6,2.4,3.5,2.3,5.9c-0.1,5.2,0,10.3,0,15.5c0,0.8,0,1.5,0,2.2c1.7,0.5,36.1,0.7,39.1,0.2c0-0.7,0.1-1.4,0.1-2.2
		c0-4.3-0.1-8.7,0-13c0.2-8.2,5.6-14.9,13.6-16.7c1.5-0.3,3.2-0.4,4.7-0.5c0.7-0.1,1.5,0,2.5,0c0-1.2,0.1-2.2,0-3.1
		C190,98.3,196.8,90,207,89.7c0.3,0,0.6-0.1,1.1-0.2c0-0.8,0-1.7,0-2.5c0-4.9,0-9.9,0-14.8c0.1-16.1,11.1-29.6,26.8-33
		c2.3-0.5,4.7-0.7,7-0.7c16.9-0.1,33.7,0,50.6,0c0.9,0,1.8,0,3,0c0-1.3,0-2.4,0-3.6c0.1-2.6-0.1-5.2,0.4-7.7c1.3-8,7.9-13.6,16-13.9
		c2-0.1,4,0,5.9,0c21.5,0,43,0,64.5,0c6.4,0,11.3,2.6,14.8,7.9c2,3,2.7,6.4,2.7,10c0,5.7,0.2,11.4-0.1,17.1c-0.1,4,2.5,7.5,7.3,7.4
		c1.1,0,2.1,0,3.2-0.2c2.9-0.4,4.9-2.6,5.3-5.5c0.1-0.7,0.1-1.5,0.1-2.3c0-5.7,0-11.4,0-17.1c0-6.6,2.8-11.7,8.5-15.1
		c2.2-1.3,4.6-2.2,7.1-2.1c2.9,0,5.8-0.1,8.6,0.5c7.1,1.6,12.3,8,12.5,15.3c0.2,6.5,0.1,13.1,0.1,19.6c0,0.8,0,1.5,0.1,2.3
		c0.4,2.4,2.1,4.2,4.5,4.4c1.7,0.2,3.3,0.2,5,0.1c3.9-0.3,6.2-2.8,6.3-6.7c0-6.2-0.1-12.3,0-18.5c0.1-6.6,3-11.7,8.7-15
		c2.1-1.2,4.5-2,6.9-2c2.9,0,5.8-0.1,8.6,0.5c7.4,1.7,12.5,8.4,12.5,16c0,6.2,0,12.3,0,18.5c0,1.9,0.5,3.5,1.7,5.1
		c2.1,2.9,10.6,3.1,12.8-0.2c1-1.4,1.5-2.9,1.5-4.7c0-6.2-0.1-12.3,0-18.5c0.1-8,5.4-14.8,13.2-16.4c4.5-0.9,9.1-0.9,13.6,0
		c7.9,1.6,13.2,8.4,13.3,16.6c0,15.4,0,30.9,0,46.3c0,8.5-0.1,17,0,25.5c0.1,6.3-4.8,11.6-11.3,11.2c-1.1-0.1-2.3,0-3.4,0
		c-3.4,12.8-11.5,20.3-24.7,22.5c-0.2,2.3-0.1,4.6,0,7.1c4.6,0,8.6,1.2,11.9,4.4c3.3,3.2,4.8,7.1,4.9,11.8c9.3,0,18.4,0,27.9,0
		c0-1,0-2,0-3c0-32.4,0-64.7,0-97.1c0-1.4,0-2.9,0.3-4.3c1-5,5.4-8.9,10.5-9.3c2.6-0.2,5.1,0,7.9,0c0.1-0.9,0.2-1.4,0.2-2
		c0-2.5,0-5,0-7.5c0.1-7.1,5.3-12.5,12.4-12.5c18.8-0.1,37.5-0.1,56.3,0c6.9,0,12,5.2,12.2,12.2c0.1,3.1,0,6.2,0,9.5
		c0.8,0.1,1.5,0.2,2.1,0.2c1.7,0,3.3,0,5,0.1c7,0.5,11.8,5.5,11.8,12.5c0,11.4,0,22.8,0,34.2c0,3,0,5.9,0,9.1
		c2.5-0.4,3.1-2.2,3.9-4.3c1.9,0.2,3.8,0.4,5.8,0.7c-0.1,3,0.9,5.3,3.9,6.1c2.9,0.8,4.8-0.8,6.3-3.3c1.8,0.7,3.5,1.4,5.4,2.1
		c-0.7,2.9-0.5,5.5,2.3,7c2.6,1.4,4.8,0.3,6.8-1.7c1.6,1.2,3,2.3,4.6,3.5c-1.5,2.6-1.9,5,0.3,7.2c2.1,2.1,4.5,1.8,7.1,0.2
		c1.2,1.5,2.3,3,3.6,4.6c-2,2.1-3.1,4.4-1.5,7.2c1.2,2,2.8,2.5,6.7,2.1c0.2,0.4,0.5,0.9,0.7,1.3c0.5,1.3,1,2.5,1.5,3.9
		c-2.4,1.4-4.1,3.2-3.4,6.1c0.7,3.1,3.1,4.1,6.2,4.2c0.2,1.9,0.5,3.7,0.7,5.6c-2.8,1-5.1,2.4-4.8,5.7c0.2,2.7,2,4.1,4.8,4.8
		c-0.2,1.9-0.4,3.7-0.7,5.7c-3,0.1-5.5,1.1-6.2,4.3c-0.6,2.8,1,4.6,3.4,6c-0.7,1.8-1.4,3.5-2.2,5.3c-3-0.8-5.6-0.4-7.1,2.5
		c-1.2,2.5-0.4,4.6,1.7,6.4c-0.8,1.8-2.1,3.2-3.5,4.8c-2.5-1.4-4.9-1.8-7.1,0.4c-2.1,2.1-1.7,4.5-0.2,7.1c-1.5,1.2-3,2.3-4.6,3.6
		c-2.1-2-4.4-3.2-7.2-1.5c-2.5,1.6-2.7,4-2,6.8c-1.8,0.7-3.5,1.4-5.4,2.2c-1.5-2.5-3.3-4.1-6.4-3.3c-2.5,0.7-3.5,2.3-3.9,6.1
		c-1.8,0.2-3.8,0.5-5.6,0.7c-1.2-3.1-1.6-3.5-3.9-4.4c0,0.9-0.1,1.7-0.1,2.5c0,13.9,0,27.8,0,41.7c0,2-0.1,4-1,5.8
		c-2.3,5-6.3,7.4-11.8,7.5c-4.6,0.1-9.1,0-13.7,0c-0.8,0-1.6,0-2.7,0c0,2.2-0.1,4.2,0,6.1c0.2,2.7-1,4.9-2.7,6.7
		c-2.3,2.4-5.2,3.9-8.3,5c-1.6,0.6-3.3,1-5,1.6c-0.1,0.3-0.1,0.6-0.1,0.9c0,2.7,0,5.5,0,8.3c3.4,1.2,5.7,3.3,5.5,7.2
		c-0.2,3.4-2.2,5.3-5.4,6.4c0,2,0,3.9,0,6c3.3,1.1,5.4,3.2,5.4,6.7c0,3.5-2.1,5.6-5.4,6.6c0,2,0,3.9,0,6c3.3,1.1,5.4,3.3,5.4,7
		c0,3-1.7,5-5.4,6.5c0,3.9,0,7.9,0,12c12.3,0,24.4,0,36.7,0c0.1-0.6,0.1-1.2,0.1-1.7c0.4-3.9,3.2-6.7,7.1-7.1c1.6-0.1,3.3,0,5.3,0
		c0-1.2,0-2,0-2.9c0-18,0-36,0-54c0-4.6,1.7-8.3,5.4-11c1.3-1,2.9-1.7,4.5-2.1c7.3-2.2,14.8-3.1,22.4-3.6c12.7-0.8,25.4-1,38-0.9
		c6.8,0.1,13.7,0,20.5,0c10,0.1,19.9,0.8,29.7,2.5c3.4,0.6,6.7,1.1,10.1,1.6c6.3,1,10.9,6.3,11,12.7c0.1,6.8,0,13.5,0,20.3
		c0,0.8,0,1.7,0,2.6c0.7,0.2,1.2,0.4,1.8,0.6c5.9,2,9.7,7.1,10,13.4c0.1,1.9,0,3.8,0,5.6c1.7,0.5,11.6,0.6,14.7,0.2
		c0-4.9,0-9.9,0-15.1c-3.9-1.8-7-4.5-8.4-8.9c-1-2.9-1-5.8-0.1-8.7c1.9-6,7.5-9.9,13.9-9.7c6.1,0.2,11.4,4.4,13,10.3
		c1.8,6.6-0.9,12.3-8.1,16.8c0,0.7,0,1.5,0,2.3c0,6.7,0,13.4,0,20.1c0,3.1-0.1,3.3-3.2,3.3c-6.4,0-12.8,0-19.1,0c-0.8,0-1.6,0-2.7,0
		c0,1.1,0,1.9,0,2.7c0,1.8,0,3.6,0,5.5c-0.3,6.1-4,11.2-9.8,13.3c-0.6,0.2-1.1,0.4-1.9,0.7c0,0.8,0,1.6,0,2.4c0,6.8,0.1,13.7,0,20.5
		c-0.1,5.8-3.7,10.7-9.1,12.3c-1.5,0.5-3.1,0.7-4.7,0.7c-7.6,0.1-15.2,0-22.8,0c-0.8,0-1.6,0-2.4,0c-1.3,8.1-2.8,9.9-9.8,11.4
		c0,3.1,0,6.2,0,9.7c0.9,0,1.7,0,2.6,0c11.5,0,23.1,0,34.7,0c1.2,0,2.4,0.1,3.6,0.4c3.9,1.1,6.5,4.5,6.7,8.5c0,1.2,0,2.4,0,3.9
		c2.6,0,5,0,7.4,0c4.1,0.1,7.5,1.8,10.1,4.9c2.1,2.5,2.9,5.5,2.9,8.7c0,8.3,0,16.6,0,24.8c0,8.1,0,16.3,0,24.4
		c0,6.2-3.6,11.2-9.3,12.9c-1.4,0.4-3,0.6-4.5,0.6c-2.1,0.1-4.2,0-6.7,0c0,1.4,0,2.7,0,4c0,5.5-3.4,9.1-8.9,9.7
		c-0.8,0.1-1.7,0.1-2.5,0.1c-38.7,0-77.4,0-116,0c-1.1,0-2.1,0-3.2-0.1c-4.9-0.6-8.1-4.1-8.3-9c-0.1-1.4,0-2.8,0-4.5
		c-2.5,0-4.8,0-7,0c-3.7,0-6.8-1.2-9.5-3.8c-2.4-2.4-3.7-5.2-3.8-8.5c0-0.6,0-1.2,0-1.8c0-16,0-32.1,0-48.1c0-2.1,0.1-4.1,1-6
		c2.3-5.1,6.3-7.9,11.9-8.1c2.4-0.1,4.8,0,7.5,0c0-1.2,0-2.1,0-2.9c-0.2-6.2,4.8-10,9.8-9.9c11.7,0.2,23.4,0.1,35.1,0.1
		c0.8,0,1.6,0,2.6,0c0-3.4,0-6.5,0-9.6c-6-1-9.4-3.5-9.7-11.3c-0.8,0-1.6-0.1-2.4-0.1c-7.6,0-15.2,0-22.8,0c-8.4,0-14-5.6-14-14
		c0-2.3,0-4.5,0-7.1c-1.7,0-3.3-0.1-4.8-0.1c-3.5-0.2-5.9-1.9-7.1-5.1c-0.4-1.1-0.5-2.3-0.7-3.5c-1.7-0.5-34.2-0.5-36.8,0
		c0,0.8,0,1.7,0,2.6c0,21.7,0,43.5,0,65.2c0,16.5-11,29.8-27.2,32.6c-3.2,0.6-6.5,0.4-9.8,0.5c-1.1,0-2.1,0-3.2,0
		c-0.3,1-0.5,1.8-0.8,2.5c-1,2.5-1.9,5.1-3.2,7.5c-0.9,1.7-2.4,3.1-3.9,4.4c-1.4,1.3-3.2,1.8-5.2,1.8c-4.7-0.1-9.4,0-14.1,0
		c-0.8,0-1.5,0-2.5,0c0,0.9-0.1,1.6-0.1,2.3c0,4.7-0.1,9.4,0,14.1c0,1.4-0.4,2.4-1.4,3.4c-7.2,7.1-14.3,14.3-21.4,21.4
		c-1.2,1.2-2.3,1.6-4,1.6c-29.6,0-59.3,0-88.9,0c-28.5,0-57,0-85.5,0c-2.1,0-3.5-0.6-5-2.1c-6.9-7-13.8-13.9-20.8-20.8
		c-1.1-1.1-1.6-2.2-1.6-3.8c0.1-4.6,0-9.1,0-13.7c0-0.7,0-1.5,0-2.6c-1,0-1.8,0-2.6,0c-5.2,0-10.3-0.1-15.5,0c-2.9,0.1-5.2-1-7.1-3
		c-2.7-2.6-4.2-5.9-5.3-9.4c-0.4-1.1-0.7-2.3-1.1-3.6c-0.9,0-1.8,0-2.7,0c-31.2,0-62.3,0-93.5,0c-0.6,0-1.2,0-1.8,0
		c-1.6-0.1-2-0.5-2.1-2c0-0.5,0-1.1,0-1.6c0-12.3,0-24.6,0-36.9c0-0.8,0-1.7,0-2.6c-0.7-0.1-1.3-0.2-1.8-0.2
		c-9.2-0.3-15.5-7.9-15.2-15.8c0.1-2.1,0-4.2,0-6.5c-7.8,0-15.4,0-23.1,0c0,31.8,0,63.5,0,95.4c2.3,0.1,4.4,0.2,6.6,0.4
		c1.4,0.1,2.9,0.3,4.3,0.5c1.5,0.2,2.4,1.2,2.7,2.7l0,0.2c1.1,7,1.1,14.1,0,21.1c-0.3,1.7-1.2,2.7-3,3c-1.5,0.2-3,0.5-4.5,0.6
		c-5.7,0.3-11.4,0.4-17.1-0.3c-3.2-0.4-4-1-4.3-4.2c-0.4-3.9-0.6-7.9-0.6-11.8c0-2.7,0.4-5.4,0.7-8.2c0.2-1.8,1.3-2.9,3.1-3.1
		c2.4-0.3,4.8-0.5,7.3-0.7c1.1-0.1,2.1-0.1,3.3-0.2c0-31.8,0-63.5,0-95.4c-10.5,0-20.9,0-31.4,0c-0.5,1.7-0.6,52-0.1,54.8
		c2.1,0.1,4.3,0.2,6.5,0.4c1.4,0.1,2.9,0.3,4.3,0.5c1.6,0.2,2.5,1.3,2.8,2.8c0.1,0.7,0.3,1.3,0.3,2c0.5,6.2,0.7,12.4-0.2,18.6
		c-0.4,2.5-1,3.1-3.4,3.6c-1.9,0.3-3.9,0.6-5.9,0.6c-4.8,0-9.6-0.2-14.3-0.3c-0.3,0-0.6,0-0.9-0.1c-3.3-0.5-4.1-1.1-4.5-4.4
		c-0.8-6.3-0.8-12.6,0-18.9c0.4-3.1,1-3.8,4.1-4.2c2.6-0.4,5.3-0.4,7.9-0.6c0.6,0,1.2-0.1,1.9-0.1c0-18.3,0-36.4,0-54.5
		c-1.6-0.5-21.6-0.7-25-0.2c0,0.8,0,1.6,0,2.4c-0.5,15.8-2.1,31.4-6.3,46.6c-2.6,9.6-6.2,18.7-11.5,27.2
		c-3.5,5.5-7.6,10.4-12.8,14.4c-4.5,3.4-9.5,5.7-15.1,6.5c-6.7,0.9-12.8-0.6-18.6-3.9c-5.8-3.4-10.4-8.1-14.3-13.5
		c-0.5-0.7-1-1.4-1.6-2.3c-12.4,2-24.1-0.5-35.4-6.8c0,5.3,0,10.2,0,15.3c0.8,0.1,1.6,0.1,2.4,0.2c2.6,0.2,5.3,0.3,7.9,0.6
		c2.3,0.3,3,1,3.4,3.3c0.2,1,0.4,2.1,0.4,3.2c0.3,5.5,0.5,11.1-0.3,16.6c-0.4,3.1-1.2,3.9-4.3,4.2c-6.8,0.8-13.6,0.8-20.5,0
		c-3.1-0.4-3.9-1.2-4.3-4.3c-0.8-6.3-0.8-12.6,0-18.9c0.4-3.2,1.1-3.9,4.3-4.3c2.3-0.3,4.7-0.4,7-0.5c0.8-0.1,1.6-0.1,2.6-0.2
		c0.1-0.5,0.2-1,0.2-1.4c0-4.3,0-8.7,0-13c0-1-0.1-1.7-1.1-2.3c-14.1-9-23.8-21.7-31.4-36.3c-7.2-13.9-11.6-28.7-14.5-44
		c-0.3-1.6-0.8-3.3-0.8-4.9c-0.1-1.9-1-2.8-2.5-3.7c-10.7-6.3-21.3-12.6-31.9-19c-5.1-3-10.2-6-15.3-9.1c-1.1-0.7-2.3-1-3.6-1
		c-13.3,0-26.6-0.1-39.9,0.1c-13,0.1-26.5-8.9-29.8-24.1c-4-18.4,10-36.1,28.8-36.6c1.1,0,2.3,0,3.4,0c63.5,0,126.9,0,190.4,0
		c1,0,2,0,2.8,0c0.2-0.2,0.2-0.2,0.3-0.3l0.1-0.2c0-30.5,0.1-61.1,0.1-91.6c0-0.5,0-1-0.1-1.8c-1.5,0-2.9,0-4.3-0.1
		c-1.1-0.1-2.2-0.1-3.1-0.4c-2.5-0.8-3.8-2.7-4-5.3c-0.1-1.3,0-2.6,0-4.2c-1.6,0-2.9-0.1-4.3,0c-1.9,0.2-3.1-0.8-3.7-2.4
		c-0.6-1.5-1-3-1.2-4.6c-0.5-3.3-0.4-6.7,0.6-9.9c0.2-0.7,0.5-1.4,0.8-2.1c0.7-1.4,1.8-2.2,3.5-2c1.3,0.1,2.7,0,4.3,0
		c0-1.3,0-2.4,0-3.4c0.1-4.1,2.5-6.4,6.6-6.5c1.4,0,2.9,0,4.3-0.1c0.1,0,0.3-0.1,0.6-0.3c-0.1-7,2-13.5,6.6-19.1
		c4.5-5.6,10.5-8.9,17.7-10.3c0-0.9,0-1.7,0-2.6c0-5.5,0.1-10.9,0-16.4c0-1.8,0.5-3.3,1.6-4.6c1.7-2.3,4-4,6.6-5.1
		c2.7-1.1,5.5-2.1,8.5-3.1c0-3.4,0-7,0-10.6 M341.6,443c0-1.1,0-1.8,0-2.5c0-3,0.1-5.9,0-8.9c0-1.5,0.4-2.6,1.5-3.6
		c7-6.9,13.9-13.8,20.8-20.8c1.6-1.6,3.1-2.2,5.4-2.2c57.7,0.1,115.5,0,173.2,0c0.5,0,1.1,0,1.6,0c1.2-0.1,2,0.4,2.8,1.2
		c7.3,7.4,14.7,14.7,22.1,22.1c0.9,0.9,1.2,1.8,1.2,3c-0.1,3.3,0,6.5,0,9.8c0,0.6,0.1,1.2,0.2,1.9c0.9,0,1.6,0,2.4,0
		c4.6,0,9.3,0.1,13.9,0c2.8-0.1,5,1,6.9,2.9c2.3,2.2,3.7,5,4.8,7.9c0.6,1.7,1.1,3.4,1.7,5.2c3.2,0,6.4,0.2,9.6-0.1
		c1.4-0.1,2.8-1.1,4-2c2.3-1.8,3-4.5,3-7.3c0-22,0-43.9,0-65.9c0-0.6-0.1-1.2-0.2-1.9c-1.1,0-2.1,0-3.1,0c-28,0-55.9,0-83.9,0
		c-3.6,0-7.3,0-10.9,0c-11.4-0.1-21.1-7.4-24.2-18.4c-0.7-2.7-1-5.5-1.1-8.3c-0.1-7.2,0-14.4,0-21.7c0-0.8,0-1.6,0-2.4
		c-0.4-0.1-0.6-0.2-0.7-0.2c-5.7-0.6-8.2-3.4-8.2-9.1c0-1.2,0-2.4,0-3.5c-2.7-0.5-17-0.4-18.7,0.1c0,14.1,0,28.3,0,42.5
		c2.4,0.2,4.7,0.3,6.9,0.6c2.1,0.3,2.7,0.8,2.9,2.9c0.3,3.2,0.4,6.4,0.4,9.5c0,1.7-0.3,3.3-0.4,5c-0.2,1.5-1.1,2.3-2.5,2.5
		c-1.4,0.2-2.7,0.4-4.1,0.4c-3.6,0-7.3-0.1-10.9-0.3c-2.3-0.1-3.2-0.8-3.5-2.6c-0.8-5-0.8-10,0-15c0.2-1.3,1-2.2,2.4-2.4
		c1.7-0.2,3.5-0.3,5.2-0.5c0.7-0.1,1.5-0.1,2.2-0.1c0-14.4,0-28.5,0-42.8c-7.3,0-14.5,0-21.8,0c0,4.8,0,9.5,0,14.2
		c2.3,0.2,4.4,0.3,6.5,0.5c2.5,0.3,3.2,1,3.5,3.4c0.5,4.5,0.5,8.9,0,13.4c-0.3,2.3-0.9,2.9-3.2,3.2c-4.9,0.7-9.8,0.7-14.8,0
		c-2.5-0.3-3.1-1-3.4-3.5c-0.5-4.3-0.5-8.6,0-13c0.3-2.7,1-3.4,3.7-3.7c0.5-0.1,1.1-0.1,1.6-0.1c1.6-0.1,3.1-0.3,4.6-0.4
		c0.4-3.9,0.3-12.6-0.2-14.2c-8.9,0-17.9,0-27.1,0c0.6,1.6,1.2,2.9,1.7,4.4c-1.3,0.9-2.5,1.7-3.7,2.5c0.5,2,1,3.9,1.5,5.8
		c1.6,0.2,3,0.3,4.5,0.5c0.2,2.2,0.4,4.2,0.6,6.3c-1.5,0.4-2.9,0.8-4.4,1.3c-0.2,2-0.3,3.9-0.4,5.9c1.4,0.7,2.6,1.3,4.1,2
		c-0.5,2-1,4-1.5,6c-1.6,0-3,0-4.6,0c-0.8,1.7-1.5,3.5-2.3,5.3c1.2,1.1,2.2,2.1,3.3,3.1c-1.3,1.9-2.4,3.6-3.6,5.4
		c-1.5-0.6-2.8-1.2-4.2-1.7c-1.5,1.6-2.8,3-4.1,4.4c0.7,1.4,1.4,2.7,2.1,4c-1.8,1.4-3.4,2.6-5,3.9c-1.2-1-2.4-2-3.5-2.9
		c-1.9,1-3.6,2-5.2,2.9c0.2,1.6,0.4,3,0.6,4.5c-2.2,0.7-4.1,1.4-6,2c-0.8-1.4-1.5-2.6-2.3-3.9c-2,0.3-3.9,0.7-5.9,1
		c-0.3,1.5-0.6,2.9-0.9,4.3c-2.2,0-4.3,0-6.4,0c-0.3-1.5-0.6-2.8-0.8-4.3c-2-0.3-3.9-0.7-5.9-1c-0.8,1.3-1.5,2.5-2.3,3.9
		c-2-0.7-4-1.3-6-2c0.2-1.6,0.4-3,0.6-5c-0.9,0.8-1.5,1.2-1.9,1.6c-2.2,2.2-4.5,4.3-6.6,6.6c-1.4,1.6-3,2.2-5.2,2.2
		c-22.1-0.1-44.2,0-66.3,0c-0.9,0-1.8,0-2.8,0.1c0.3,5.3-0.5,10.1-3.8,14.2c-3.3,4.1-7.8,6.2-13.2,6.6c0,1,0,1.8,0,2.6
		c0,4.3,0,8.7,0,13c0,3.3-0.7,6.3-2.5,9.1c-3.1,4.6-7.5,7-13.1,7.1c-1.9,0-3.7,0-5.6,0c-0.5,2.9-0.4,19.5,0.1,21.2
		c25.7,0,51.4,0,77.3,0c0.2-0.8,0.3-1.6,0.6-2.3c0.9-2.7,1.6-5.4,2.8-7.9c0.9-1.9,2.3-3.6,3.7-5.1c1.7-1.8,3.9-2.7,6.5-2.7
		c4.6,0.1,9.1,0,13.7,0C338.3,443,339.8,443,341.6,443z M276.5,368.8c-0.1-0.5-0.1-0.8-0.2-1.1c-0.9-4-1.8-8-2.8-12
		c-0.9-3.6-0.2-6.8,2.1-9.6c3.1-3.7,6.1-7.6,9.4-11.1c5.4-5.7,10.9-11.2,16.5-16.7c2.6-2.6,5.6-4.4,9.1-5.5c1.5-0.5,2.9-0.7,4.5-0.3
		c2.9,0.9,5.8,1.7,8.7,2.6c1.2,0.4,2.4,0.8,3.6,1.3c0.3-0.5,0.5-0.9,0.7-1.2c4.7-9.7,8-19.8,9.9-30.4c0.4-2.4,0.8-5,0.7-7.4
		c-0.2-4.3-0.8-8.6-1.1-12.9c-0.8-9.9-1.9-19.6-3.7-29.4c-1.3-7.4-4.1-14.2-7.8-20.9c-0.6,0.1-1.2,0.2-1.8,0.3
		c-3.2,0.2-6.4,0.7-9.5,0.6c-5.7-0.2-10.8-1.9-14.6-6.4c-4.1-4.8-8.2-9.6-12.3-14.4c-2.2-2.6-4.4-5.2-6.8-7.6
		c-3.1-3.1-5.6-6.5-7.3-10.6c-0.8-1.9-1-3.8-0.3-5.8c0.8-2.3,1.7-4.5,2.6-6.8c0.3-0.8,0.7-1.7,1-2.6c-1.2-0.8-2.3-1.4-3.5-2.1
		c-0.4,0.7-0.7,1.4-1.1,1.9c-1.5,1.9-2.8,4.2-5.1,5c-3,1.1-6.1,2-9.3,2c-2.1,0-4.3,0.1-6.4,0.1c-10.5-0.1-21-0.4-31.4-0.5
		c-11.5-0.1-22.9-0.1-34.4-0.2c-1.9,0-3.8,0-5.7-0.3c-5.4-0.7-10.7-1.6-14.7-5.8c-0.1-0.1-0.3-0.1-0.7-0.2c-3,1.8-6.1,3.9-9.3,5.7
		c-3.5,1.9-5.6,5-8,8.2c1.1,2.3,2.2,4.5,3.4,6.7c2,4,1.8,8-0.5,11.7c-1.5,2.5-3.1,5-5,7.1c-5.3,5.7-9.1,12.3-11.7,19.6
		c-1.5,4.2-3.4,8.3-4.5,12.6c-2.2,8.5-3.2,17.2-3.6,25.9c-0.1,2-0.2,4.1,0,6.1c0.5,4.3,1.1,8.6,1.8,12.9c1.2,7.4,2.7,14.8,6,21.7
		c1.8,3.8,3.6,7.6,5.6,11.2c2.7,4.8,5.6,9.4,8.5,14c1.8,3,3.4,6.1,4.3,9.5c0.6,2.2,0.5,4.1-0.6,6.1c-1.2,2.3-2.3,4.6-3.4,6.9
		c-1.1,2.3-1,4.4,0.3,6.7c2.6,4.5,5.8,8.3,10.5,10.8c7.1,3.8,14.1,7.8,21.2,11.7c0.9,0.5,1.9,0.9,2.9,1.2c9.6,3.2,19.5,5.2,29.7,5.8
		c16,1,31.7-1,46.9-6.3C265,374.4,270.8,371.9,276.5,368.8z M678.1,245.3c0-0.9,0-1.6,0-2.4c0-4.9-0.1-9.9-0.1-14.8
		c-0.1-24.4-0.2-48.8-0.4-73.2c-0.1-15.6-0.2-31.1-0.3-46.7c-0.1-10.6-0.1-21.3-0.3-31.9c-0.1-5.6-0.8-11.2-2.2-16.7
		c-0.8-3-1.9-5.7-3.8-8.2c-0.9-1.2-1.9-1.7-3.4-1.6c-5.8,0.3-11.5,0.4-17.3,0.5c-11.9,0.1-23.7,0.2-35.6,0
		c-10.1-0.1-20.2,0.7-30.2,2.4c-3.1,0.6-6.2,1.4-9.3,2c-1.3,0.3-2,1-2.2,2.3c-0.2,1.5-0.6,3-0.7,4.5c-0.5,9-1,18.1-1.3,27.1
		c-0.5,12.4-0.9,24.9-1.3,37.4c0,0.4,0.1,0.9,0.2,1.3c0.7,0,1.3-0.1,1.9-0.1c3,0.1,5.9,0.2,8.9,0.4c0.8,0.1,1.9,0,2,1.6
		c-0.7,0.2-1.4,0.5-2.1,0.5c-2.8,0.2-5.6,0.3-8.4,0.5c-0.8,0-1.6,0.1-2.5,0.2c0,1.2,0,2.2,0,3.2c5.8,0.2,11.4,0.2,17,0.5
		c5.5,0.2,11.1-0.1,16.6,1.5c-11.2,1.1-22.5,0.6-33.7,1c0,1,0,1.7,0,2.5c3.2,0.8,6.5,0.4,9.9,2c-3.5,1.2-6.8,0.5-10,0.9
		c0,1.1,0,2,0,3c0,19.2,0,38.4,0,57.7c0,1.1,0,2.3,0.1,3.4c0.8,12.9,1.6,25.8,2.2,38.7c0.4,7.5,1.2,15,2.8,22.4
		c0.4,1.7,0.4,1.8,2.2,2c0.4,0,0.8,0.1,1.1,0.1c15.3,1.1,30.7,0.7,46-0.2c9.9-0.6,19.9-1.3,29.8-2.1c7.3-0.5,14.7-1.1,22-1.7
		c0.6,0,1.2-0.2,1.8-0.3c0.2-1.3,0.4-2.6,0.6-3.8c-4.4,0-8.5,0-12.6,0c-6.9-0.1-13.8-0.1-20.7-0.2c-1.1,0-2.2,0-3-1.2
		c12-2.1,24.1-1.7,36.3-2.4c0-0.6-0.1-1.2-0.1-1.9c-5.7-0.6-11.3-0.5-17-1.3c0.5-1.5,1.6-1.6,2.6-1.7c2.9-0.2,5.8-0.3,8.6-0.4
		c1.9-0.1,3.8,0,5.8,0c0-1.2,0-2.1,0-3.3c-2.3,0-4.4,0.1-6.5,0c-2.8-0.2-5.6-0.5-8.4-0.8c-0.6-0.1-1.4-0.1-1.6-1.4
		C667,245,672.5,245.8,678.1,245.3z M547.7,414c-0.4-1.6-1.1-1.9-2.3-2c-9.4-0.6-18.8-1.3-28.2-1.9c-6.7-0.4-13.3-0.9-20-1.2
		c-6.2-0.3-12.5-0.4-18.7-0.4c-6.9-0.1-13.8-0.1-20.7,0c-6,0.1-12,0.6-18,0.7c-12.6,0.2-25.2,0.3-37.8,0.4c-3.3,0-6.7-0.1-10,0.1
		c-8.4,0.4-16.8,0.9-25.2,1.3c-2.3,0.1-3.9,1.5-4.5,4c0.4,0,0.8,0,1.1,0c10.7-0.7,21.4-0.4,32.1-0.1c12.4,0.4,24.8,0.6,37.1,0.1
		c6.1-0.2,12.1-0.3,18.2-0.4c1.7,0,3.4,0.1,4.9,1c-1.2,0.2-2.4,0.2-3.6,0.2c-7.1,0.5-14.2,1-21.3,1.5c-10.6,0.7-21.2,0.9-31.9,1
		c-12.8,0-25.7,0.4-38.5,0.7c-2.5,0.1-4.1,1.3-5.1,3.9c0.6,0,1.2,0,1.8,0c6.6-0.1,13.2-0.4,19.8-0.4c3,0,6,0.6,9,1
		c0.8,0.1,1.8,0.4,2,1.7c-0.5,0.2-1,0.4-1.5,0.5c-2.3,0.2-4.5,0.3-6.8,0.5c-8.9,0.6-17.7,1.2-26.6,1.7c-2.5,0.1-4.4,0.8-5.9,2.7
		c-0.7,0.8-1,1.6-1,2.6c-0.3,9.6-0.6,19.1-1,28.7c-0.2,5.7-0.6,11.4-0.8,17.1c-0.3,12.2,0.3,24.3,0.9,36.4c0,0.9,0.3,1.5,1.1,2.1
		c8,6,15.9,11.9,23.9,17.9c1,0.7,2,1,3.2,1c6.4,0,12.8,0,19.1-0.1c20.7-0.3,41.3-0.5,62-0.9c11.7-0.2,23.4-0.6,35.1-0.9
		c0.5,0,1-0.1,1.4-0.2c0.9-12.6,1.8-25.1,2.8-37.8c-1.5-0.3-3-0.6-4.4-1c-0.5,0.8-1,1.4-1.3,2c-1.4,2.3-2.7,4.6-4.2,6.8
		c-2.3,3.4-5.3,5.6-9.6,5.6c-0.5,0-1.1,0-1.6,0.1c-1.6,0.1-2.7,0.8-3.2,2.4c-0.2,0.7-0.5,1.3-0.8,1.9c-2.8,6.1-10,7.9-15.3,3.9
		c-2.1-1.6-4.1-3.4-6.2-5c-0.6-0.4-1.3-0.9-2-0.8c-4.7,0.5-9.4,1-14,1.6c-1.3,0.2-2.4,0.8-3.3,1.8c-1.1,1.1-2.4,2.1-3.7,2.9
		c-5.4,3-9.3,1.9-12.8-3.7c-0.3-0.4-0.6-0.9-0.6-1.5c-0.2-2.1-1.6-2.9-3.4-3.5c-0.7-0.2-1.4-0.5-2.1-0.8c-5.1-1.6-8.6-6.4-8.9-11.8
		c-0.1-2.4,0.1-4.8,0.1-7.2c0-4.7,0.1-9.4,0-14.1c-0.2-5.4,4.2-10.1,10.1-10c22.3,0.1,44.7,0,67,0c6,0,10,3.9,10.1,10
		c0,0.9,0.1,1.7,0.1,2.7c7.6-0.4,14.9-0.8,22.2-1.6c0.5-7.2,0.9-14,1.4-20.9c0.3-3.8,0.5-7.6,0.9-11.3c0.3-2.7,1.1-5.3,1.7-7.8
		c1.1-0.3,1.8-0.4,2.5-0.6c1.3-0.3,2.6-0.8,4-1c8.9-1.2,17.7-1,26.6-0.3c1.8,0.1,3.6,0.5,5.4,0.9c1.5,0.3,2.4,1.3,2.7,2.8
		c0.5,2.8,1.1,5.5,1.4,8.3c0.6,5.5,1,11,1.6,16.5c1.3,11.1,1.5,22.1,0.7,33.2c-0.2,2.9-0.4,5.8-0.6,8.6c-0.2,2-0.4,4.1-0.7,6.1
		c-0.3,1.9-1.4,3.2-3.5,3.3c-0.6,0-1.2,0.2-1.8,0.2c-4.3,0.2-8.6,0.4-13,0.6c-4.4,0.2-8.8,0.4-13.2,0.4c-2.9,0-5.8-0.4-8.4-1.8
		c-2.8-1.5-5-3.6-5.3-7.1c-0.3-3.5-0.9-6.9-1.3-10.4c-0.5-3.4-1-6.7-1.5-10.2c-7.3-0.9-14.4-1.8-21.6-2.7c0,2.1,0,3.9,0,5.9
		c0.9,0,1.6,0,2.4,0c3.3,0,6.7,0,10,0c2.5,0,2.7,0.3,2.7,2.8c0,0.7,0,1.4,0,2.1c0,13.2,0,26.4,0,39.7c0,0.9,0,1.8,0,2.8
		c0.8,0,1.3,0,1.9,0c7-0.5,14.1-1.1,21.1-1.5c8-0.5,16.1-0.9,24.1-1.2c2.3-0.1,4.1-0.6,5.5-2.5c0.4-0.5,0.9-0.9,1.2-1.4
		c0.3-0.5,0.5-1,0.7-1.6c-1.6,0-2.9-0.1-4.1,0c-8.5,0.4-17,0.4-25.5-0.3c-1.1-0.1-2.1-0.3-3.2-0.5c-0.7-0.1-1.5-0.5-1.3-1.3
		c0.1-0.5,0.8-1.1,1.3-1.3c0.9-0.3,1.9-0.4,2.9-0.4c2.7-0.1,5.5-0.2,8.2-0.2c7.7-0.1,15.5-0.3,23.2-0.4c1.1,0,1.8-0.2,2.5-1.1
		c1.8-2.6,3.7-5,5.4-7.6c1.1-1.6,1.9-3.3,2.1-5.2c0.3-3,0.7-6,1-9.1c0.5-5.1,1.3-10.3,1.5-15.4c0.2-7,0-14-0.3-20.9
		c-0.4-9-1.3-17.9-1.6-26.8c-0.1-3.4-1.1-6.2-3.5-8.4c-0.1-0.1-0.2-0.2-0.3-0.3c-0.6-0.8-1.3-1.1-2.3-1c-2.2,0.2-4.4,0.3-6.6,0.3
		c-11.8-0.1-23.6-0.1-35.3-0.3c-9.2-0.2-18.4-0.6-27.5-1c-1.8-0.1-3.6-0.4-5.4-0.7c11.9-2,23.8-2.5,35.8-2.6
		c12-0.1,24.1-0.3,36.6-0.5c-1.2-1.4-2.1-2.4-2.9-3.5c-0.8-1.1-1.7-1.5-3.1-1.5c-3.5,0.1-7,0.1-10.5,0c-7-0.1-14-0.3-21-0.4
		c-2.5-0.1-4.9-0.5-7.8-1.6c1.1-0.6,1.7-1.1,2.4-1.3c2.2-0.5,4.4-1.1,6.7-1.2c8.2-0.4,16.4-0.6,24.6-0.8
		C545.8,414,546.6,414,547.7,414z M421,251.5c-12.4-0.3-24.6-0.7-36.7-0.9c-12.2-0.2-24.4-0.6-36.9-0.6c0,2,0.1,3.7,0,5.3
		c-0.2,3.9-0.5,7.9-0.7,11.8c0,0.7-0.1,1.4-0.1,2c-0.1,9-1.4,17.9-3.7,26.6c-0.1,0.3-0.1,0.6-0.2,1.1c1.6,0.1,3,0.2,4.4,0.3
		c2.7,0.1,5.3,0.3,8,0.4c0.8,0,1.6,0.3,1.7,1.2c0,1-0.8,1.4-1.7,1.5c-0.8,0.1-1.5,0.1-2.3,0.1c-3.7,0-7.4,0-11.3,0
		c-0.3,1-0.6,1.9-0.8,2.8c3.7,0.8,7.3,0.3,10.6,2.1c-3.5,1.4-7.3,0.6-11,1.6c-0.2,1.1-0.5,2.2-0.8,3.6c7.8,0.5,15.4-0.3,23.1,1.5
		c-1.2,1.4-2.6,1.5-3.9,1.6c-3.6,0.3-7.1,0.4-10.7,0.6c-3.3,0.1-6.7,0.2-10.1,0.3c-0.7,2-1.3,3.9-2,5.9c8.6-0.3,8.6-0.3,9.9,0.9
		c-3.1,0.7-6.1,1.4-9.2,1.9c-1.3,0.2-1.9,0.7-2.4,2c-2.2,6.3-4.4,12.6-6.7,18.9c-0.2,0.5-0.2,1-0.4,1.6c5.6,0.8,11.2-0.2,16.6,1.2
		c-0.9,0.5-1.7,0.9-2.6,1.1c-4.6,1.2-9.3,1.6-14,1.8c-1.3,0.1-2.2,0.4-2.5,1.7c-0.1,0.5-0.3,1-0.5,1.7c4.2-0.3,8.2-0.7,12.2-0.9
		c4.6-0.2,9.3-0.1,13.9,0c1,0,2.7,0,2.8,1.4c0.1,1.5-1.6,1.4-2.6,1.6c-8.7,1.1-17.5,2.1-26.2,3.1c-2.8,0.3-2.9,0.3-3.4,3.2
		c4.7,0.3,9.4,0.7,14.1,1c-0.2,0.5-0.5,0.7-0.8,0.7c-4.6,0.6-9.2,1.3-13.7,1.9c-1,0.1-1.7,0.4-2.1,1.4c-1.6,3.9-3.3,7.8-4.9,11.8
		c-0.1,0.2,0,0.4,0,0.8c0.9,0.1,1.7,0.1,2.5,0.2c2.7,0.1,5.5,0.2,8.2,0.4c5.4,0.5,10.9,1,16.3,1.6c0.9,0.1,1.6,0.1,2.3-0.5
		c6.8-6.4,14.3-12,20.8-18.8c1.1-1.1,1.6-2.2,1.6-3.8c-0.1-9,0-17.9,0-26.9c0-1.1,0.1-2,0.9-2.9c4.2-4.1,8.3-8.3,12.5-12.4
		c0.8-0.8,2-1.5,3.1-1.7c1.9-0.4,3.9-0.5,5.9-0.6c3.9-0.2,7.9-0.2,11.8-0.4c4.3-0.1,8.7-0.4,13-0.4c9.7,0,19.4,0.4,29.2,0.3
		c12.9-0.2,25.8-0.7,38.7-1.1c7.9-0.3,15.8-0.9,23.7-1c12.8-0.3,25.7-0.3,38.5-0.5c10-0.2,20.1,0.2,30.1,0.9
		c0.7,0.1,1.6,0.2,2.2-0.1c2.5-1.4,4.5-3.5,6.2-5.9c-2.2,0-4.2,0-6.1,0c-8.6-0.2-17.2-0.4-25.7-0.7c-4.9-0.2-9.8-0.6-14.8-0.9
		c-0.9-0.1-1.7-0.3-2.5-0.5c0-0.1,0.1-0.3,0.1-0.4c16.8-0.4,33.5-0.8,50.3-1.2c0-1.5,0-3,0-4.6c-2.8-0.2-5.4-0.3-8.1-0.5
		c-2.7-0.2-5.5-0.3-8.1-0.8c-2.5-0.4-5.1-0.4-7.5-1.6c7.9-0.2,15.7-0.4,23.7-0.5c0-3.5,0-6.7,0-10c-0.8-0.2-1.5-0.3-2.1-0.5
		c-2.7-0.8-5.4-1.6-8-2.6c-3.2-1.2-4.9-3.6-5.2-6.9c-0.3-3.9-0.5-7.7-0.7-11.6c-0.1-3.2,0-6.5,0-10c-9.2,0-18.3,0-27.6,0
		c0,2.5,0,4.7,0,6.9c-0.1,7.3-5.1,13.4-12.3,15c-0.6,0.1-1.1,0.3-1.7,0.4c-0.1,0.4-0.1,0.7-0.1,1c0.4,6.2-5.1,12.5-12.8,12.4
		c-21.3-0.2-42.7-0.1-64.1,0c-5.6,0-12-4.1-12.3-11.5c0-0.7-0.1-1.3-0.2-1.9c-10.2-1.9-14.5-9.4-14.1-17.8
		C421.1,254.9,421,253.4,421,251.5z M120.3,367.2c0-0.3-0.1-0.5-0.1-0.8c9.2-2.7,18.8-2.3,28.6-3.1c-1.9-1.7-3.3-3.1-5.7-2.8
		c-2.7,0.3-5.5,0.4-8.2,0.5c-0.9,0-1.8,0-2.7,0c-1.3-0.1-2.6-0.2-3.9-0.2c-3,0-6.1,0.1-9.1,0c-3.9-0.1-7.7-0.5-11.6-0.8
		c-0.5,0-1-0.4-1.5-0.5c0-0.2,0-0.3,0-0.5c2.4-1.2,5-1.1,7.6-1.3c2.7-0.2,5.4-0.4,8.3-0.6c-1.4-2-2.7-3.8-4-5.6
		c-0.4-0.4-1.1-0.8-1.7-0.8c-5.8,0.1-11.7,0.2-17.5,0.3c-4.4,0.1-8.8,0.2-13.2,0.2c-1.1,0-2.3,0-3.2-1.4c0.8-0.3,1.4-0.7,2.1-0.8
		c2.1-0.3,4.2-0.7,6.3-0.8c7.4-0.5,14.9-0.9,22.3-1.4c0.4,0,0.8-0.1,1.5-0.2c-0.3-0.4-0.5-0.7-0.6-0.9c-2-2.9-4.3-5.6-5.9-8.6
		c-4.5-8.3-8.7-16.7-12.2-25.5c-2.7-6.8-5.1-13.7-6.3-20.9c-1.5-8.6-2.3-17.3-2.1-26.1c0.1-10.2,1.5-20.3,3.7-30.3
		c2-8.8,5.9-17,8.8-25.6c2.5-7.7,6.5-14.7,10.1-21.9c3-6.2,7.6-11.1,12.4-15.9c1.1-1.1,2.3-2.1,3.6-2.8c1.1-0.7,2.3-1.2,3.5-1.4
		c2.1-0.3,4.2-0.1,6.3,0.7c1.2,0.5,2.4,0.8,3.6,1.3c1,0.4,1.8,0.3,2.7-0.4c5-4.2,10.4-7.9,16-11.2c0.5-0.3,1-0.8,1.1-1.3
		c0.4-1.3,0.6-2.6,1-4.2c-1.2,0-2.2,0-3.2,0c-10.1-0.4-20.2-0.9-30.3-1.3c-2.8-0.1-5.6-0.3-8.4-0.3c-8.7,0.1-17.3,0.3-26,0.4
		c-2.5,0-5-0.1-7.5-0.2c-4.6-0.3-9.2-0.7-13.8,0.3c-0.8,0.2-1.6,0.3-2.5,0.4c-3.4,0.5-6.1,2.4-8.8,4.4c-0.1,0,0,0.3,0,0.5
		c4.8-0.2,9.7-0.5,14.5-0.6c3.9-0.1,7.7,0.1,11.6,0.2c1.2,0,2.5,0.1,3.1,1.6c-0.9,1.5-2.5,1.4-3.8,1.5c-6.9,0.7-13.9,1.3-20.9,2
		c-2.3,0.2-4.7,0.5-7.2,0.7c-0.2,1.4-0.4,2.7-0.6,4.1c2.5,0,4.6,0.1,6.7,0c6.2-0.2,12.4-0.5,18.7-0.6c2.4,0,4.8,0.1,7.2,1
		c-1.4,1.1-1.7,1.2-3.9,1.6c-7.3,1.3-14.8,1.9-22.2,1.9c-2.2,0-4.4,0.2-6.6,0.3c-0.2,2.4-0.4,4.5,0,6.8c0.8,0,1.4,0,2,0
		c5.3,0.1,10.6,0.1,15.9,0.3c0.8,0,1.7,0.2,2.5,0.3c0.4,0.1,0.8,0.4,1.4,0.7c-0.4,0.4-0.6,0.6-0.9,0.7c-6.8,2.1-14,1.6-21.2,2.3
		c0,1,0,1.9,0,2.8c0.5,16.3,0.2,32.5-0.3,48.8c-0.3,10.1-0.9,20.2-1.3,30.3c-0.1,2.9-0.4,5.8,0,8.6c0.9,7.3,1.3,14.7,1.2,22.1
		c-0.2,17.7-0.6,35.4-0.8,53.1c-0.1,4.7-0.2,9.4,0,14.1c0.2,3.9,0.9,7.7,1.4,11.5c0.1,0.7,0.3,1.4,0.6,1.9
		c2.7,4.8,6.6,8.3,11.4,10.7c3.9,1.9,8.1,1.9,12.3,1.8c10.7-0.4,21.4-1.2,32.1-1.4c14.1-0.2,28.1-0.8,42.1-2.5
		c2.5-0.3,5.1-0.6,7.8-0.9c-0.3-1.8-0.5-3.3-0.8-5c-1,0-1.8,0-2.6,0c-16,0.5-32,1-48.1,1.4c-5.9,0.1-11.8-0.2-17.7-0.4
		c-0.7,0-1.5-0.3-2.2-0.6c-0.3-0.2-0.6-0.7-0.6-1.1c0-0.4,0.5-0.9,0.8-1c0.8-0.2,1.6-0.3,2.5-0.4c8.5-0.5,17-1.1,25.5-1.5
		c13.4-0.7,26.7-1.3,40.1-1c0.5,0,1.1-0.1,1.7-0.2c0-0.4,0-0.5-0.1-0.6c-0.1-0.2-0.3-0.4-0.4-0.5c-2.8-1.7-5.4-4.1-9.1-2.9
		c-0.5,0.1-1.1,0.1-1.6,0.1c-8.1,0-16.3,0-24.4,0C123.7,367.6,122,367.3,120.3,367.2z M306.1,38.6c1.1,0,1.9,0,2.7,0
		c13.2,0,26.4,0,39.7,0c1.7,0,3.5,0.1,5.2,0.4c15.8,2.3,27.9,15.7,28.6,31.7c0.2,4.7,0.1,9.4,0.1,14.1c0,0.8,0,1.6,0,2.4
		c15.2,6.4,23.9,17.4,23.8,33.8c-0.1,16.2-8.9,27.1-23.7,33.3c0,0.6-0.1,1.2-0.1,1.8c0,10,0,20.1,0,30.1c0,6.4,4.2,10.6,10.6,10.6
		c8.7,0,17.5,0,26.2,0c0.6,0,1.2-0.1,2-0.2c0-0.9,0-1.8,0-2.6c0-6.8,0-13.5,0-20.3c0-4.9-0.1-9.7,0-14.6c0.1-8.5,5.5-14.8,13.7-16
		c1-0.1,1.9-0.2,3-0.3c0-2.4,0-4.7,0-7c-16.6-2.6-24.2-15.1-24.9-26c-0.3-5.8,1-11.2,4-16.1c4.8-7.8,12-12,20.9-13.2
		c0-0.6,0.1-0.9,0.1-1.2c0.1-2.6,0.4-2.8,2.9-2.9c2.6,0,5.2,0,7.7,0c2.1,0,4.3,0,6.4,0c1.5,0,1.8,0.5,2,1.9c0.1,0.6,0.1,1.2,0.1,1.9
		c15.3,0,30.5,0,45.7,0c0.1-0.4,0.2-0.6,0.2-0.8c0.2-3,0.2-3,3.2-3c4.1,0,8.2,0,12.3,0c3.3,0,3.3,0,3.5,3.2c0,0.2,0.1,0.4,0.2,0.8
		c13,2.1,21.2,9.5,24.6,22.3c1.4,0,2.8,0,4.3,0c0-1,0-1.8,0-2.6c0-12.2,0-24.3,0-36.5c0-10.9,0-21.9,0-32.8c0-4.4-2.5-7-6.9-7.1
		c-2.1-0.1-4.3,0-6.4,0.1c-1.8,0.1-3.3,0.9-4.5,2.3c-1.1,1.4-1.5,2.9-1.5,4.7c0,6.2,0,12.3,0,18.5c0,7.8-5.2,14.5-12.8,16.2
		c-2.6,0.6-5.3,0.6-7.9,0.5c-7.8-0.3-14.3-5.9-15.7-13.7c-0.2-1.3-0.3-2.7-0.3-4.1c0-5.9,0-11.9,0-17.8c0-3.3-2-6-5-6.4
		c-1.9-0.3-3.9-0.2-5.9,0c-1.5,0.1-2.7,1.1-3.6,2.2c-1.1,1.4-1.5,2.9-1.5,4.7c0,6.4,0.1,12.8-0.1,19.1c-0.2,8.4-7.1,15.5-15.5,15.9
		c-2.2,0.1-4.4,0.1-6.6,0c-7.4-0.4-13.5-6.1-14.4-13.4c-0.2-1.2-0.2-2.4-0.2-3.6c0-6.2,0-12.3,0-18.5c0-3.9-2.4-6.4-6.3-6.7
		c-1.3-0.1-2.6-0.1-3.9,0.1c-3.2,0.4-5.4,2.7-5.6,5.9c-0.1,1,0,2,0,3c0,6,0.1,12-0.2,18c-0.3,6.9-5.4,12.8-12.1,14.7
		c-3,0.9-6,0.7-9.1,0.5c-8.2-0.5-15-7.3-15.5-15.5c-0.1-2-0.1-4.1-0.1-6.2c0-4.5,0-9,0-13.4c0-4.4-2.5-6.9-6.9-7.1
		c-0.5,0-1.1,0-1.6,0c-22.1,0-44.2,0-66.3,0c-0.9,0-1.8,0-2.7,0.1c-3.1,0.4-5.5,2.8-5.7,5.9C306,32.5,306.1,35.4,306.1,38.6z
		 M283.7,158c0.3-0.4,0.7-0.9,1-1.3c1.6-2,3.8-2.8,6.3-2.3c1.3,0.3,2.6,0.9,3.7,1.7c12.6,8.8,23.3,19.4,32.1,32
		c1.6,2.3,3.2,4.6,4.6,7c2.2,3.6,1.4,7.2-2,9.6c-0.3,0.2-0.6,0.4-0.7,0.5c2.5,5.9,5.1,11.6,7.2,17.6c2.1,5.9,3.5,12,5.2,18.1
		c26.5,0,53.1,0,79.7,0c0.4-3.7,0.3-18.7-0.2-20.4c-0.8,0-1.6,0-2.4,0c-8.7,0-17.3,0.1-26,0c-10.6-0.1-19.3-4.3-26-12.4
		c-5.2-6.3-7.6-13.6-7.6-21.7c0-10,0-20.1,0-30.1c0-0.8,0-1.7,0-2.5c-9.6-3.9-16.4-10.7-20.3-20.1c-8.7-0.7-9.5-1.2-13.3-6.7
		c-0.6,0-1.4,0-2.1,0c-3.3,0-6.7,0-10,0c-4.8-0.1-9.1-1.7-12.4-5.3c-3.3-3.4-4.7-7.5-4.7-12.2c0-14.8,0-29.6,0-44.4
		c0-0.9-0.1-1.7-0.1-2.6c-0.6-0.1-0.9-0.1-1.2-0.1c-17.4,0-34.8,0-52.2,0c-5.9,0-10,4.2-10.1,10.1c-0.1,5.2,0,10.5,0,15.7
		c0,0.5,0.2,1,0.2,1.5c0.7,0.1,1.3,0.1,1.9,0.1c3.6,0.3,6.8,1.5,9.6,3.9c3.8,3.3,5.7,7.4,5.9,12.4c0,1.4,0.1,2.8,0.1,4.4
		c1,0,1.8-0.1,2.5,0c1.6,0.1,3.2,0.1,4.7,0.5c8,1.9,13.4,8.8,13.5,17c0,6.9,0,13.8,0,20.7c0,0.8,0,1.6,0,2.3
		C274.9,153.3,279.2,155.6,283.7,158z M425.8,218.9c0.2,7,0.5,18.6,1.1,30.1c0.3,4.9,1.4,9.8,2.1,14.6c0.2,1.2,0.8,1.9,2,2.1
		c0.5,0.1,1,0.3,1.5,0.4c10.7,3.1,21.7,4.6,32.8,4.9c9.3,0.3,18.5,0.2,27.8,0.2c2.5,0,5,0.1,7.5-0.2c8.7-1.1,17.3-2.4,25.9-3.6
		c1.2-0.2,2-0.7,2.4-1.8c0.8-2,1.7-3.9,2.2-5.9c1.9-7.2,2.6-14.6,3.2-22.1c0.8-11.4,1-22.8,0.9-34.2c0-4.1-0.1-8.2,0-12.3
		c0.1-5.2,0.4-10.4,0.5-15.6c0.1-4.7,0.1-9.4-0.1-14.1c-0.2-4.7-2.5-8-6.8-9.9c-1.3-0.6-2.7-1.1-4.1-1.4c-4.1-1-8.3-1.9-12.5-2.7
		c-3.2-0.6-6.5-1.3-9.7-1.3c-8.5,0.1-17,0.6-25.5,0.9c-13.5,0.6-27,1.2-40.5,1.8c-0.7,0-1.6,0-2.2,0.3c-6.8,3.2-10,7.9-9.7,15.4
		c0.3,7,0.9,13.9,1.1,20.9C425.9,195.2,425.8,204.8,425.8,218.9z M759.6,519.3c0.7,0,1.3,0,1.9,0c7.1,0,14.3,0,21.4,0
		c10.6,0,21.1-0.1,31.7,0c6.3,0.1,12.6-0.1,18.8-1.5c2.9-0.7,5.8-1.7,8.6-2.8c0.8-0.3,1.7-1.2,2-2c1-3.2,1.9-6.4,1.8-9.8
		c-0.2-3.9-0.2-7.7-0.3-11.6c0-9.5,0.4-19-1-28.4c-0.5-3.2-1.2-6.4-1.9-9.6c-0.2-1-0.6-1.9-1.7-2.2c-4.7-1.4-9.3-2.8-14.2-2.8
		c-43.2,0-86.3,0-129.5,0.1c-3.8,0-7.6,0.6-11.3,1.3c-2.4,0.5-4.6,1.8-6.9,2.7c-0.9,0.4-1.3,1.1-1.4,2.2c-0.2,2.6-0.6,5.3-0.8,7.9
		c-1,12.3-1.7,24.6-1.5,36.9c0.1,3.8-0.3,7.6,1.4,11.2c2.4,5.2,1.6,4.4,6.8,6.1c0.7,0.2,1.5,0.4,2.2,0.5c3,0.2,6.1,0.3,9.1,0.4
		c8,0.4,15.9,0.9,23.9,1.2c8.2,0.2,16.4,0.2,24.6,0.3c0.4,0,0.7-0.1,1.2-0.2c0.1-1,0.1-2,0.2-3c0.1-1,0.3-2,0.4-3c0.2,0,0.4,0,0.6,0
		c0.3,1,0.7,1.9,0.9,2.9c0.3,1,0.4,2.1,0.6,3.2c1,0,1.9,0,2.9,0c0-0.7,0-1.3,0.1-1.9c0.2-2.6,0.5-5.3,0.8-7.9
		c0.1-0.7,0.2-1.5,1.3-1.6c0.2,0.2,0.5,0.3,0.5,0.4c0.5,3.6,0.9,7.2,1.4,10.9c1.2,0,2.4,0,3.8,0c0.2-0.7,0.4-1.3,0.7-2.3
		C759,517.8,759.2,518.4,759.6,519.3z M507.5,330.9c0,0.5-0.1,0.8-0.1,1.1c0,8.1,0,16.1,0,24.2c0,1,0.1,2,0.3,2.9
		c1.3,4.9,5.5,8.3,10.7,8.3c10.7,0,21.4,0,32.1,0c21,0,42.1,0,63.1,0c0.9,0,1.7-0.1,2.6-0.1c0-4.2,0-8.1,0-12.1
		c-3.2-1-5.3-3-5.4-6.3c-0.2-3.8,2.1-6,5.5-7.2c0-2,0-3.8,0-5.8c-3.2-1.1-5.5-3.1-5.5-6.7c0-3.7,2.2-5.8,5.5-6.8c0-2,0-3.9,0-5.9
		c-3.2-1-5.4-3-5.5-6.5c-0.1-3.8,2.2-5.9,5.5-7.1c0-3.2,0-6.2,0-9.3c-0.9-0.2-1.7-0.5-2.5-0.7c-3.3-1-6.5-2.2-9.2-4.4
		c-2.9-2.3-4.9-5.1-4.5-9.2c0.2-1.7,0-3.4-0.1-5.3c-2.2,0-4.1-0.1-6,0c-1.9,0.1-3.9-0.3-5.9,0.3c0,0.9,0,1.8,0,2.6
		c0,7.3,0,14.6,0,21.9c-0.1,8.6-5.2,15.7-13.1,18c-2.2,0.6-4.6,0.9-7,0.9c-16.2,0.1-32.4,0-48.5,0c-1,0-1.9,0-3,0
		c-0.1,2.2-0.1,4.1-0.3,5.9c-0.4,3.4-2.6,5.9-5.9,6.7C509.5,330.7,508.6,330.8,507.5,330.9z M147,190c0-2.1-0.6-3.9-2-5.4
		c-3-3.1-6-6.2-9.2-9.2c-2.4-2.2-5.9-2.1-8.3,0.1c-0.7,0.7-1.4,1.4-2,2.2c-26.9,30.8-37.4,66.5-31,106.9c4,24.9,15,46.5,32,65.1
		c3.2,3.5,6.7,3.6,10.1,0.3c2.9-2.8,5.7-5.7,8.6-8.5c3.4-3.4,3.5-6.5,0.3-10.1c-19.8-22.3-28.5-48.3-25.9-78.1
		c1.2-14.3,5.6-27.6,12.7-40.1c3.5-6.2,7.6-11.9,12.3-17.2C146,194.3,147,192.4,147,190z M823.7,404.3c0.3-1,0.5-1.8,0.7-2.5
		c0.9-5.1,1.8-10.2,2.5-15.3c1-6.7,1.7-13.4,1.6-20.2c-0.2-10.6-0.2-21.3-0.4-31.9c-0.1-6.1-0.2-12.2-0.6-18.2
		c-0.5-7.1-2.1-14.1-3.8-21c-0.3-1.3-1.1-1.6-2.3-1.7c-5.6-0.6-11.2-1.2-16.8-1.8c-3.4-0.3-6.8-0.8-10.2-0.8
		c-23.2-0.1-46.3,0.1-69.5-0.1c-8.2-0.1-16.2,1.3-24.1,3.3c-1.1,0.3-2.1,0.7-3.2,1c-0.2,2.2-0.4,4.1-0.7,6.1
		c-1.5,12.8-2.4,25.7-3,38.6c-0.6,13.1-0.7,26.1-0.1,39.2c0.3,6.7,0.9,13.3,1.8,19.9c0.7,5.4,0.1,4.1,4.9,5.4
		c12.2,3.3,24.7,4.4,37.2,4.6c16.9,0.2,33.7,0.2,50.6,0.2c2.4,0,4.9-0.1,7.3-0.3c4.4-0.5,8.7-1,13.1-1.7
		C813.8,406.1,818.7,405.2,823.7,404.3z M30.6,493.5c5.5-0.7,12.3-3.5,18-7.3c10.2-6.8,17.5-16,23.1-26.8
		c6.5-12.5,10.1-26,12.2-39.9c0.1-0.7,0-1.5,0-2.2c-2.9-0.4-69.4-0.3-71.2,0.1c0,0.6-0.1,1.3-0.1,2c0.2,9.7,1,19.4,2.5,29
		c1.7,10.9,4.3,21.6,8.6,31.8C25.6,484.9,27.8,489.3,30.6,493.5z M174.9,157.1c2.3,1.2,5,1.8,7.6,2.4c7.3,1.8,14.6,2.9,22.1,2.7
		c6.6-0.2,13.2,0,19.8-0.1c5.9,0,11.9,0,17.8-0.1c1.3,0,2.5-0.2,3.9-0.3c0.2-2.3,0.3-4.4,0.6-6.5c0.2-1.9,0.6-3.7,1-5.6
		c0.2-1,0.8-2,2.1-2.4c1.4,2,1.3,4.4,1.5,6.7c0.2,2.4,0.4,4.8,0.5,7.4c1.1-0.2,2.1-0.3,3.1-0.5c0.3-4,0.5-7.7,0.8-11.5
		c0.3-4.2,0.7-8.5,1.1-12.7c0.1-1,0.1-2.1,1.2-3c2.6,8.6,2,17.2,2.3,26c1.4-0.5,2.6-0.9,4-1.3c0-2.3-0.1-4.4,0-6.5
		c0.3-7.8,0.6-15.6,1.2-23.4c0.3-3.2-1-5.4-3-7.4c-0.4-0.4-1-0.7-1.6-0.8c-6.9-1-13.6-2.8-20.7-2.9c-14-0.1-28-0.5-41.9-0.8
		c-1.1,0-2.2,0-3.5,0c-0.4,5-0.2,9.7-1.5,14.7c-2-4.8-2.4-9.5-3.2-14.3c-1.1,0.2-2.1,0.4-3.1,0.6c0,1-0.1,1.8-0.1,2.6
		c-0.4,5.7-0.8,11.4-1.3,17c-0.1,0.7-0.2,1.4-0.5,2c-0.3,0.5-0.8,1.2-1.3,1.3c-0.9,0.1-1.3-0.7-1.4-1.5c-0.2-1.2-0.5-2.4-0.5-3.6
		c0-4.6,0-9.1,0-13.7c0-1,0-1.9,0-3.1c-0.8,0.1-1.5,0.1-2.2,0.3c-2.6,0.5-3.4,1.5-3.5,4.2c-0.5,9-1,18-1.5,27.1
		C174.8,152.4,174.9,154.7,174.9,157.1z M85.4,417.4c-0.2,0.8-0.4,1.5-0.5,2.2c-1.5,10.9-4.1,21.5-8.3,31.6
		c-4.3,10.5-9.9,20.1-18,28.2c-6.9,6.8-14.8,11.8-24.2,14.4c-0.9,0.3-1.9,0.5-2.9,0.8c0.1,0.3,0.1,0.6,0.2,0.7
		c4.2,6.2,9.2,11.5,15.9,15c7.8,4.2,15.9,4.6,24.1,1.1c5.9-2.5,10.6-6.5,14.6-11.3c6.6-7.8,11-16.9,14.3-26.5
		c6.1-18,8.2-36.7,8.6-55.6c0-0.2-0.1-0.4-0.2-0.7C101.3,417.4,93.4,417.4,85.4,417.4z M550.7,110.4c3.7,0,6.6-2.1,7.5-5.4
		c0.3-1.2,0.4-2.4,0.4-3.6c0-23.3,0-46.7,0-70c0-0.5,0-0.9,0-1.4c-0.3-7.9-6.4-13.8-14.3-13.9c-2.2,0-4.4-0.1-6.6,0
		c-3.5,0.1-6.5,1.4-9,3.8c-3.1,2.9-4.5,6.6-4.5,10.8c0,6.2,0,12.3,0,18.5c0,4.7-3.1,8.3-7.7,9c-2.1,0.3-4.4,0.3-6.6-0.1
		c-3.8-0.7-6.1-3.2-7.1-6.9c-0.3-1-0.2-2.1-0.2-3.2c0-6,0-12,0-18c-0.1-6.5-4.5-12-10.8-13.5c-3-0.7-6.1-0.7-9-0.1
		c-6.8,1.4-11.1,6.9-11.2,14.1c-0.1,5.6,0,11.2,0,16.9c0,0.8,0,1.5,0,2.3c-0.3,4.5-3.3,7.8-7.7,8.6c-1.6,0.3-3.2,0.2-4.8,0.2
		c-6.3,0.2-9.3-4.6-9.1-9c0.2-6.5,0.1-13.1,0-19.6c-0.1-6.8-5-12.4-11.7-13.5c-1.9-0.3-3.8-0.3-5.7-0.2c-5.5,0.2-9.5,2.8-12.2,7.6
		c-1.2,2.2-1.6,4.5-1.6,7c0,6,0,12,0,18c0,5.6-3.8,9.5-9.4,9.7c-0.8,0-1.5,0-2.3,0c-6.2-0.1-10-3.9-10-10.2c0-5.7,0-11.4,0-17.1
		c0-1.4-0.1-2.9-0.4-4.3c-1.6-6.5-7.1-10.8-14-10.8c-23.2,0-46.4,0-69.5,0c-8.2,0-14,5.7-14.5,13.9c0,0.7,0,1.4,0,2.1
		c0,25.3,0,50.6,0,75.9c0,0.7,0,1.4,0,2.1c0.4,6.7,4.4,11.9,10.6,13.5c3.7,0.9,7.5,0.5,11.4,0.4c0.5-1.6,1-3,1.6-4.7
		c-3.3,0-6.3,0-9.2,0c-5.6,0-9.5-3.9-9.5-9.4c0-26.4,0-52.9,0-79.3c0-1,0.1-2,0.4-2.9c1.2-4.3,4.8-6.7,9.7-6.7c22.9,0,45.7,0,68.6,0
		c7,0,10.4,5.2,10.3,10.3c-0.2,6.1-0.1,12.2,0,18.2c0.1,6.8,4.7,12.3,11.3,13.6c1.9,0.4,3.9,0.3,5.9,0.3c6.5-0.1,12-4.4,13.5-10.8
		c0.3-1.4,0.4-2.9,0.4-4.3c0-5.9,0-11.9,0-17.8c0-4.9,3.2-8.6,8.1-9.3c1.9-0.3,3.8-0.2,5.7,0c4.6,0.7,7.6,4.1,7.9,8.7
		c0.1,0.7,0,1.4,0,2.1c0,6.4-0.1,12.8,0.1,19.1c0.2,6.8,5.7,12.1,12.5,12.3c1.6,0,3.2,0.1,4.8,0c4.6-0.2,8.3-2.2,11.1-5.9
		c1.9-2.5,2.7-5.4,2.7-8.5c0-6.2,0-12.5,0-18.7c0-3.4,1.5-6.2,4.4-7.7c4.2-2.3,8.7-2.3,12.9,0.1c3,1.7,4.3,4.6,4.3,8
		c0,6.1,0,12.2,0,18.2c0.1,7.2,4.5,13,11.4,14.2c2.8,0.5,5.8,0.5,8.6,0c6.7-1.2,11.1-6.9,11.2-13.9c0.1-6.2-0.1-12.5,0-18.7
		c0.1-5.4,3.8-9.1,9.2-9.4c2.1-0.1,4.3-0.1,6.4,0c2.9,0.1,5.3,1.2,7.2,3.4c1.7,2,2.2,4.4,2.2,7c0,23.4,0,46.8,0,70.2
		c0,3.4-0.4,3.9-3.8,4.4c-0.1,0-0.2,0.2-0.5,0.4C549.8,107.6,550.2,109.1,550.7,110.4z M-55.1,385.1c0.9,0,1.5,0,2.1,0
		c16.1-0.1,32.2-0.3,48.3-0.3c5.8,0,11.7,0.4,17.5,0.8c2.8,0.2,5.6,0.8,8.4,1.3c-0.5,0.6-1,0.8-1.4,1c-4.2,1-8.5,1.3-12.9,1.4
		c-17.6,0.2-35.2,0.3-52.9,0.5c-2.7,0-5.4,0.3-8,0.4c1.2,1.2,2.6,1.9,3.9,2.8c1.2,0.8,2.4,1,3.9,0.9c9.9-0.7,19.9-0.6,29.8,0.4
		c4.3,0.5,8.6,1.2,12.8,1.8c0.8,0.1,1.8,0.1,2.5,1.1c-0.7,0.3-1.2,0.6-1.8,0.7c-2.6,0.5-5.2,1.2-7.8,1.3c-8,0.4-15.9,0.5-23.9,0.8
		c-0.7,0-1.4,0.1-2.2,0.2c0.3,0.3,0.3,0.5,0.5,0.5c4.8,2.7,9.5,5.4,14.3,8c0.8,0.4,1.7,0.6,2.6,0.6c6.7,0.3,13.3,0.5,20,0.7
		c13.8,0.4,27.6,1,41.5,0.5c1.8-0.1,3.6,0.3,5.3-0.7c0.4-0.2,1-0.1,1.6-0.1c11.2,0.1,22.5,0.3,33.7,0.4c0.7,0,1.5,0,2.5,0
		c0.3-5,0.5-9.7,0.8-14.6c-1.8-0.2-3.3-0.4-4.8-0.4c-6.8-0.2-13.2-1.9-19.4-4.5c-2.7-1.1-5.2-2.6-7.4-4.5c-1.9-1.6-3.9-3.2-5.6-5
		c-1.2-1.2-2.3-1.6-4-1.6c-21.5,0.3-43,0.6-64.5,0.8c-10.9,0.1-21.9,0.3-32.8,0.5c-1,0-1.9,0.1-3,0.1
		C-55.4,382.5-55.3,383.7-55.1,385.1z M306,62.4c0,1.1,0,1.9,0,2.7c0,10.2,0,20.4,0,30.5c0,4.7,0,9.4,0,14.1c0,3.6,2.4,6.4,5.9,6.6
		c4.1,0.2,8.2,0,12.3,0c2.3-6.8,7.2-9.1,13.9-8.5c4-9.6,10.8-16.2,20.2-20.1c0.1-0.4,0.1-0.7,0.1-1c0-5,0.1-10,0-15
		c-0.1-4.1-2.9-7.8-6.9-9c-1.2-0.4-2.5-0.5-3.8-0.5c-13.1,0-26.3,0-39.4,0C307.7,62.3,307,62.3,306,62.4z M439.6,504.3
		c8.1,0,16.3,0,24.4,0c3.3,0,6.5,0.1,9.8,0c3.7-0.1,6.2-2.5,6.7-6.2c0.1-0.6,0.1-1.2,0.1-1.8c0-6.4,0-12.8,0-19.1c0-0.7,0-1.4-0.1-2
		c-0.5-3.3-2.9-5.6-6.2-6c-0.7-0.1-1.4,0-2,0c-21.6,0-43.2,0-64.7,0c-0.5,0-1.1,0-1.6,0c-4.1,0.2-6.8,3-6.8,7.1c0,3,0,6.1,0,9.1
		c0,4.1-0.1,8.2,0,12.3c0.1,3.8,2.6,6.4,6.4,6.7c0.7,0.1,1.4,0,2.1,0C418.2,504.3,428.9,504.3,439.6,504.3z M48.7,310.9
		c-0.9,0-1.6-0.1-2.3-0.1c-64.3,0-128.6,0-192.9,0c-1.7,0-3.3,0.1-5,0.4c-19.3,2.9-29.6,24.7-19.4,41.4c5.4,8.8,13.5,13.4,23.9,13.4
		c64.4,0,128.7,0,193.1,0c0.4,0,0.8,0,1.1,0c0.5-0.1,1-0.2,1.5-0.2c0-1.5,0-2.8,0-4.4c-1.2,0-2.2,0-3.2,0c-63.7,0-127.4,0-191,0
		c-1.4,0-2.9-0.1-4.3-0.2c-14.6-1.6-23.8-16.4-18.9-30.3c3.3-9.2,11.7-15.2,21.7-15.2c11.6,0,23.3,0,34.9,0c52.6,0,105.2,0,157.8,0
		c1,0,2.1,0,3.2,0C48.7,313.8,48.7,312.4,48.7,310.9z M-53.2,400c0,0.7-0.1,1,0,1.3c1,5.1,1.9,10.1,3.1,15.1
		c3.6,15,9,29.3,17.2,42.4c6.3,10.1,14,18.9,23.9,25.6c0.7,0.5,1.5,0.9,2.5,1.5c0-23.1,0-45.8,0-68.7c-1,0-1.8,0-2.6,0
		c-4.3,0-8.5,0-12.8,0c-1.5,0-2.8-0.3-4.1-1.1c-8.3-5-16.7-10-25-14.9C-51.6,400.8-52.2,400.5-53.2,400z M338.7,120.6
		c-0.3,17.1,13.8,32.4,32.1,32.5c17.9,0.1,32.6-14.6,32.5-32.4c-0.1-17.7-14.6-32.2-32.2-32.3C353.3,88.3,338.8,102.7,338.7,120.6z
		 M511.6,473.9c0.1,0,0.2,0,0.4,0c0,4.1-0.1,8.2,0,12.3c0.2,6.7,0.6,13.5,1,20.2c0.2,2.6,0.4,2.7,3,3.1c0.2,0,0.5,0.1,0.7,0.1
		c8.6,1.1,17.1,1,25.7,0.3c1.4-0.1,2.7-0.4,4.1-0.6c1.1-0.2,1.7-0.7,1.8-1.9c0.2-2.6,0.7-5.3,0.7-7.9c0.2-11.4,0.5-22.8,0.5-34.2
		c0-7.5-0.4-15-0.9-22.5c-0.3-4,0.3-3.9-4.2-4.3c-5.9-0.5-11.8-0.7-17.7-0.7c-3.8,0-7.6,0.6-11.3,0.9c-1.4,0.1-2,0.8-2.1,2.2
		c-0.1,1.5-0.4,3-0.5,4.5C512.2,454.9,511.9,464.4,511.6,473.9z M29.3,493.7c-0.2-0.5-0.3-0.7-0.5-1c-5.7-9.4-9.3-19.6-11.9-30.1
		c-3.5-13.9-4.8-28.1-5.3-42.4c0-1-0.1-1.9-0.1-2.8c-4.3-0.4-14.9-0.3-16.7,0.2c0,23,0,45.9,0,68.9C3.8,492.8,18.8,496.1,29.3,493.7
		z M459.6,122.5c0.8,0.1,1.6,0.2,2.3,0.2c6.8,0.1,13.7,0.2,20.5,0.1c5.2-0.1,10.3-0.4,15.5-0.6c1.9-0.1,2-0.3,2.7-2.5
		c-2.3-0.1-4.6-0.2-6.8-0.3c-5.4-0.4-10.9-0.9-16.3-1.4c-0.9-0.1-1.9-0.3-2.9-1.2c9.4-1.6,18.6-1.9,27.7-2.9
		c-0.3-0.6-0.5-1.2-0.7-1.8c-4.1-0.8-8.2-1.2-12.4-2.9c4.5-2.3,9.1-1.4,13.7-2.1c0-6.5,0-12.9,0-19.5c-15.2-0.5-30.4-0.9-45.7-1.4
		C456.5,98.4,456.8,110.5,459.6,122.5z M171.3,409.1c-2.8-5-6-9.1-9.5-13c-0.7-0.8-1.5-0.9-2.5-0.9c-3.5,0-7,0-10.5,0
		c-20.3,0.1-40.5,0.3-60.8,0.4c-0.4,0-0.7,0.1-1.2,0.1c-0.2,4.8-0.5,9.6-0.7,14.4c2.5,0.2,4.7,0.4,7,0.4c12,0.2,24,0.5,36,0
		c11.6-0.5,23.2-0.8,34.8-1.2C166.2,409.3,168.6,409.2,171.3,409.1z M621.9,390.7l0.2,0c-0.3,6.3-0.6,12.6-0.9,18.9
		c-0.2,3.8-0.6,7.6-0.5,11.4c0.3,8.6,0.7,17.1-0.2,25.7c-0.2,1.8-0.1,2,1.6,2.8c3.3,1.6,6.7,1.2,10,0.5c0.4-0.1,1-0.8,1.1-1.2
		c0.4-2.1,0.8-4.2,0.9-6.3c0.2-5.9,0.1-11.8,0.3-17.8c0.2-8,0.7-15.9,0.8-23.9c0.1-10.2,0-20.5-0.1-30.8c0-4.8-3.2-8.4-8-9
		c-0.6-0.1-1.5,0-1.9,0.4c-1.9,1.6-3.4,3.4-3.3,6.1C621.9,375.3,621.9,383,621.9,390.7z M278.6,352.5c0,1.8,0.6,3.4,1.6,4.9
		c2,3.1,4.1,6.2,6.1,9.3c1.8,2.8,3.8,3.1,6.5,1.2c14.6-10.2,26.6-22.8,35.9-37.9c1.8-2.9,1.2-5-1.8-6.5c-3.2-1.7-6.5-3.3-9.7-5.1
		c-4.7-2.7-9.8-0.8-12.3,3c-1.9,2.9-4,5.5-6.2,8.2c-4.8,5.8-10.3,11-16.3,15.5C280,347,278.6,349.4,278.6,352.5z M313.2,209.1
		c0.7-0.2,2.1-0.4,3.3-1c3.7-1.8,7.3-3.7,10.9-5.6c2.5-1.3,3-3.4,1.6-5.9c-0.2-0.4-0.4-0.8-0.7-1.2c-3.1-4.4-6.1-8.9-9.5-13.1
		c-7.4-9.2-16.1-17.2-25.8-23.9c-3-2.1-4.8-1.7-6.8,1.3c-2.1,3.2-4.2,6.3-6.2,9.5c-2,3.2-1.8,7.1,0.6,10c0.7,0.8,1.5,1.5,2.3,2.1
		c6,4.7,11.5,9.9,16.4,15.8c2.1,2.6,4.1,5.3,6,8C307.1,207.6,309.4,209,313.2,209.1z M308.8,473.5c-1.1,0-2,0-2.9,0
		c-27.1,0-54.2,0-81.4,0c-0.7,0-1.4,0-2.1,0c-2.9,0-3-0.2-3-3.2c0-0.5,0-0.9,0-1.4c0-8.9,0-17.8,0-26.7c0-0.8,0-1.6,0-2.5
		c-2.4,0-4.4,0-6.6,0c0,13.5,0,26.8,0,40.3c32.2,0,64.3,0,96.6,0C309.2,477.9,309,475.9,308.8,473.5z M176.1,384.8
		c-0.1,0.7-0.2,1.3-0.1,1.8c0.2,4.5,1.5,8.6,3.7,12.5c0.7,1.2,1.7,1.9,2.9,2.4c6.2,2.5,12.7,3.2,19.2,3.4c8.9,0.3,17.8,0,26.7,0.1
		c1.4,0,2.2-0.5,2.7-1.8c1.5-4,2.4-8.1,2.8-12.4c0-0.6,0-1.2,0-1.9c-9.8,0.9-19.4,1.2-29,0.4C195.3,388.4,185.6,387.4,176.1,384.8z
		 M616.3,370.3c-1,0-1.9,0-2.8,0c-16.7,0-33.4,0-50.1,0c-15,0-29.9-0.1-44.9-0.1c-0.2,0-0.5,0-0.7,0c-5.9-0.2-10.9-3.9-12.6-9.5
		c-0.5-1.7-0.7-3.6-0.7-5.4c-0.1-4,0-8.1,0-12.1c0-0.6,0-1.3-0.2-1.8c-0.6-1.2-4.2-2.8-5.6-2.5c-0.8,0.2-1.5,0.8-1.5,1.8
		c0,1.1,0,2.3,0.1,3.4c0.4,4.3,0.8,8.6,1.3,12.9c0.1,1.4,0.1,2.8,0.7,4c1.3,2.9,2.8,5.7,4.5,8.4c0.9,1.6,2.4,2.8,4.2,3.3
		c2.2,0.6,4.4,1.1,6.6,1.5c6.6,1.1,13.2,1.9,19.9,2.1c3.9,0.1,7.7-0.3,11.6-0.2c7.8,0.1,15.6,0.3,23.5,0.4c3.1,0.1,6.2,0.1,9.3,0.1
		c11.9,0.2,23.8,0.5,35.8,0.7c0.6,0,1.1-0.1,1.7-0.2C616.3,374.8,616.3,372.7,616.3,370.3z M401.8,214.2c1.4,0,2.9-0.1,4.3,0
		c3.4,0.2,5.8-1.6,7.6-4.2c1.7-2.6-0.2-6.2-3.3-6.3c-6-0.3-12-0.7-18-1c-3.5-0.1-6.8-0.9-10-2.1c-2.8-1-4.7-3-5.5-5.9
		c-0.6-2.1-1.2-4.2-1.6-6.4c-1.2-7.5-1.7-15.1-1.5-22.7c0-0.6-0.1-1.5-0.5-1.8c-1.6-1.5-3.8-1.6-5.8-1.6c-1.4,0-2,1.5-2.8,2.5
		c-0.7,1-0.9,2.1-0.8,3.2c0.6,7.7,1.1,15.4,1.9,23.2c0.4,4.4,1.8,8.6,3.8,12.6c1.9,3.6,4.6,6,8.3,7.4c1,0.4,2,0.7,3,0.9
		C387.8,213.6,394.8,214,401.8,214.2z M811.6,438.5c-6.4-0.3-12.4-0.6-18.5-0.9c-6.1-0.3-12.3-0.6-18.4-0.9
		c-6.5-0.3-13-0.8-19.6-0.9c-12.1-0.2-24.3-0.2-36.5,0c-5.7,0.1-11.5,1-17.2,1.6c-0.6,0.1-1.2,0.3-1.6,0.7c-2,1.9-3,4.3-3.6,6.8
		c3.1,0,6,0.1,8.9,0c18.2-0.5,36.4-1,54.6-1.5c17-0.4,34-0.8,51-1.2c0.6,0,1.3-0.1,2.1-0.2C812.3,440.7,812,439.6,811.6,438.5z
		 M453.9,138.4c0-19.8,0-39.3,0-58.9c-4.4,0-8.7,0-12.9,0c-0.5,3.3-0.4,58,0.2,59.8C445.3,139.1,449.6,138.8,453.9,138.4z
		 M518.8,139c0-19.9,0-39.6,0-59.4c-4.4,0-8.6,0-13,0c0,19.7,0,39.3,0,59C510.2,138.7,514.5,138.8,518.8,139z M685.5,181.7
		c11.4,0.4,22.2-11.5,21.5-23.4c-0.6-12.1-11.6-23.3-21.5-21.9C685.5,151.4,685.5,166.5,685.5,181.7z M823.6,528.6
		c-42.3-2.7-84.4-4-126.6-3c0.2,3,2.1,5,4.7,5c5.5,0.1,10.9,0.6,16.4,0.9c7.4,0.4,14.8,1.1,22.3,1.2c18.8,0.2,37.7,0.2,56.5,0.1
		c7.4,0,14.9-0.7,22.3-1C821.2,531.8,822.7,531.1,823.6,528.6z M309.2,463.9c-1.2,0-2.1,0-3,0c-24.8,0-49.5,0-74.3,0
		c-2.7,0-2.9-0.2-2.9-2.8c0-6.3,0-12.6,0-18.9c0-0.8-0.1-1.6-0.1-2.4c-2.3,0-4.4,0-6.4,0c-0.5,2.4-0.4,29.1,0.1,30.7
		c3,0.4,84.4,0.3,86-0.2C308.8,468.3,309,466.3,309.2,463.9z M570.7,447.2c-0.1,0.5-0.2,0.7-0.2,0.9c0,0.7,0,1.4,0,2
		c0.1,8.1,1.4,16,3.1,23.9c0.8,3.8,3,6.7,5.5,9.5c0.8,0.9,1.7,1.2,2.9,0.9c2.3-0.6,4.5-1.2,6.8-1.7c1-0.2,1.6-0.8,1.9-1.8
		c0.9-2.6,2.2-5.1,2.4-7.8c0.5-5.4,0.4-10.9,0.5-16.4c0-0.5-0.2-1.1-0.5-1.5c-2.2-3.4-4.8-6.3-8.4-8.2c-1.5-0.8-3.1-1.4-4.8-1.2
		C577,446.3,573.9,446.7,570.7,447.2z M339.3,448.7c-1.9-0.9-3.6-0.5-5.3-0.3c-4.8,0.6-9.5,0.3-14.3-0.5c-1.6-0.3-2.2,0.3-2.4,1.9
		c-0.1,0.9,0,1.8-0.1,2.7c-0.8,8.4-0.4,16.8,0.7,25.2c0.1,0.7,0.5,1.5,1,1.8c2.9,1.6,5.9,3.1,8.9,4.6c0.5,0.3,1.2,0.3,1.8,0.3
		c2.2-0.2,4.3-0.5,6.6-0.7c0.2-0.9,0.5-1.7,0.7-2.5c0.4-2.3,0.9-4.6,1-7c0.4-5.7,0.6-11.4,0.9-17.1
		C339,454.4,339.2,451.5,339.3,448.7z M236.5,45.6c-0.5,1.7,0,3.1,0.8,4.3c1.1,1.7,2.6,3.2,4.4,4.3c2,1.3,4.1,1.9,6.6,1.8
		c3.6-0.2,7.3,0.1,10.9,0.3c2.5,0.1,5,0.5,7.5,0.5c9,0.1,18.1,0,27.1,0c0.6,0,1.1-0.1,1.8-0.2c0-2.2,0-4.3,0-6.3c0-2,0.1-4-0.1-6
		c-1.5,0-2.8,0-4.1,0c-12.8,0-25.6,0-38.5,0C247.4,44.4,242,44.7,236.5,45.6z M632.7,45c0.5-5.2-0.7-9.6-4.8-12.9
		c-2.3-1.8-4.6-2.8-7.7-2.7c-6.4,0.2-12.9,0.3-19.3-0.1c-3.2-0.2-5,0.9-6.4,3.4c-0.6,1-1.1,2-1.6,3c-1.6,3.1-0.6,6.2-0.1,9.3
		C606.2,45,619.4,45,632.7,45z M198.7,413.6c0.3,3,0.6,6,0.9,8.9c0.2,1.9,0.3,3.8,0.7,5.6c0.6,2.5,2,4.4,4.8,4.9
		c2.6,0.4,5.2,1.1,7.8,1.4c3.1,0.4,6.1-0.2,8.7-1.9c1.1-0.7,2.3-1.7,2.8-2.8c2.8-5.8,3.7-11.9,2.4-18.3
		C221.8,410.4,203.2,411.8,198.7,413.6z M313.6,55.5c0.7,0,1.4,0,2.2,0c5.2-0.1,10.5-0.3,15.7-0.3c5.3,0,10.7-0.2,15.8,1.3
		c4.1,1.1,6.5-1.2,8.7-3.5c1.5-1.6,2.1-4.1,3.2-6.5c-2.1-0.5-3.8-1-5.6-1.2c-5.2-0.8-10.3-1.9-15.5-2.1c-7.4-0.4-14.7-0.4-22-1.6
		c-0.8-0.1-1.5,0-2,0.6C310.8,45.9,310.6,51.2,313.6,55.5z M625.1,274.6l0,0.2c-2.6,0-5.2-0.1-7.7,0c-4.3,0.2-8.6,0.6-12.4,2.9
		c-2,1.2-2.5,2.3-1.7,4.4c0.4,1,1.1,2,1.8,2.8c1.5,1.7,3.5,3,5.7,3.7c4.4,1.4,8.8,2.2,13.4,2.4c6.4,0.4,12.2-2,18.1-4
		c1-0.3,2.2-0.7,2.1-2.1c-0.1-1.7,0.8-3.7-1.2-5c-2.3-1.4-4.6-2.9-6.9-4.3c-0.6-0.3-1.3-0.5-1.9-0.5
		C631.1,275,628.1,274.8,625.1,274.6z M99.5,116c-4.3,0.2-8.8,0.4-13.3,0.7c-0.5,0-1.1,0.2-1.4,0.6c-1.2,1.4-2.7,2.8-3.4,4.5
		c-2.2,5.2-2.9,10.8-2.9,16.5c0,0.5,0.2,1,0.3,1.6c7.4,0.4,14.6,2.7,22,1.7C102.3,134.2,102.1,121,99.5,116z M-5.8,506.1
		c-3.2,0.2-6.4,0.4-9.6,0.7c-1.8,0.2-2,0.4-2.2,2.2c-0.7,5.8-0.7,11.7,0,17.5c0.2,1.7,0.5,2,2.1,2.1c6.4,0.7,12.9,0.7,19.3,0
		c1.8-0.2,2-0.4,2.2-2.3c0.7-5.8,0.7-11.7,0-17.5c-0.2-1.7-0.4-1.9-2.1-2.1C0.6,506.5-2.6,506.4-5.8,506.1z M437.7,86.6
		c-0.5,0.1-0.8,0.1-1.2,0.3c-4.8,1.7-9.4,3.9-13.5,7c-0.8,0.6-1.5,1.3-2.2,2c-0.9,0.8-1.3,1.9-1.1,3.1c0.4,2.3,0.8,4.6,1.1,7
		c0.5,3.5,2.8,5.9,5.2,8.1c0.9,0.8,2.2,1.4,3.4,1.7c1.6,0.4,3.3,0.6,5,0.6c0.6,0,1.3-0.4,1.7-0.8c1.3-1.2,1.7-2.8,1.7-4.6
		c0-7.5,0-15,0-22.6C437.8,87.9,437.8,87.3,437.7,86.6z M124.6,497.4c2.3,0.2,4.3,0.5,6.3,0.5c4.8,0,9.6-0.1,14.3-0.3
		c2.3-0.1,2.5-0.3,2.6-2.6c0.2-5,0.2-10,0.3-15c0-1.3-0.4-2.7-0.6-4.1c-7.7-0.9-15.3-1-22.9,0C123.5,483.1,123.5,490,124.6,497.4z
		 M180.7,537.8c0.2-2.7,0.5-5.2,0.5-7.6c0-3.8-0.1-7.6-0.3-11.4c-0.2-2.3-0.3-2.4-2.5-2.6c-6.2-0.7-12.4-0.7-18.6,0
		c-2.1,0.2-2.2,0.3-2.4,2.4c-0.6,5.7-0.6,11.5,0,17.3c0.1,0.6,0.2,1.2,0.4,1.9C165.3,539,172.8,539,180.7,537.8z M530.8,110.4
		c-1.9,2.1-4.5,2.5-6.8,3.5c-0.1,1.4,0.4,2.2,1.6,2.6c0.5,0.2,1,0.3,1.5,0.6c1.5,0.7,2.9,0.6,4.3-0.4c1.6-1.2,3.4-2.3,5-3.6
		c2.3-1.9,3.9-4.2,4.9-7c0.3-0.8,0.4-1.5,0-2.4c-3.1-7.1-7.9-12.3-15.2-15.1c-1.3-0.5-2.6-0.4-4.3-0.2c0.5,6.8,0.1,13.6,1.3,20.4
		C525.7,109,528.3,109.1,530.8,110.4z M-135,338.5c0.1-6.7-5.5-12.4-12.2-12.5c-6.7-0.2-12.5,5.5-12.6,12.3
		c-0.1,6.7,5.7,12.5,12.4,12.5C-140.7,350.8-135,345.2-135,338.5z M-78.7,338.3c-0.1-6.8-5.6-12.3-12.4-12.3
		c-6.8,0-12.4,5.7-12.4,12.5c0.1,6.7,5.7,12.3,12.4,12.3C-84.2,350.8-78.6,345.1-78.7,338.3z M-47,338.4c0,6.8,5.5,12.3,12.2,12.4
		c6.8,0.1,12.5-5.6,12.5-12.4c0-6.8-5.7-12.5-12.5-12.4C-41.6,326-47,331.6-47,338.4z M34,338.4c0-6.9-5.6-12.5-12.4-12.5
		c-6.7,0-12.3,5.6-12.4,12.3c0,6.8,5.7,12.5,12.5,12.5C28.4,350.8,34,345.2,34,338.4z M785.8,416c-18-4-35.9-4.8-53.9-1.6
		c0.7,3.9,3,5.7,6.9,5.7c11.4,0,22.8,0,34.2,0c3.5,0,6.8-0.9,10-2C784,417.8,785.1,417.4,785.8,416z M441.6,276.4
		c0,0.2-0.1,0.3-0.1,0.5c1.4,1.4,2.7,2.8,4.2,4.1c0.4,0.3,1.1,0.5,1.7,0.4c2.2,0,4.4-0.3,6.6-0.3c7.7,0,15.3,0,23,0
		c9.1,0,18.2-0.1,27.3-0.2c0.9,0,2-0.1,2.6-0.6c1.1-0.9,1.9-2.2,3.2-3.7c-1-0.1-1.5-0.2-2-0.2c-6.3-0.2-12.6-0.4-18.9-0.6
		c-13.6-0.5-27.2-0.8-40.8,0C446.2,276.2,443.9,276.3,441.6,276.4z M457,142.9c15.4,0,30.5,0,45.8,0c0.2-2.4,0.2-4.7,0-7
		c-5.4-0.5-44.1-0.2-45.8,0.2C457,138.3,457,140.5,457,142.9z M219.4,83.1c3-0.2,4.8-1.5,6.6-2.7c0.4-0.3,0.5-1.1,0.6-1.6
		c0-3.8,0.5-7.5,1.5-11.2c0.6-2.2-0.7-4.5-2.7-5.4c-2.2-1-4.5-1.9-6.7-2.8c-1.7-0.7-2.1-0.6-2.7,1.2c-1,3-2,6-2.9,9.1
		c-0.2,0.7-0.1,1.5,0,2.2c0.4,2.7,0.9,5.4,1.4,8.1c0.1,0.5,0.4,1.3,0.8,1.5C216.8,82.2,218.4,82.7,219.4,83.1z M215.9,93.9
		c-5.9-0.8-12.7,1-17,4.4c-3,2.4-4.2,5.6-4.6,9.4c7.8,0.2,15.5,0.4,23.4,0.5C217.1,103.2,216.5,98.5,215.9,93.9z M747.9,423.1
		c-0.5,2.9-0.4,8,0.2,9.6c8.4,0,16.7,0,25.1,0c0-3.3,0-6.4,0-9.6C764.6,423.1,756.3,423.1,747.9,423.1z M372.6,59.8
		c-2.5,1-4.8,2-7,2.8c-2.6,0.9-3.4,3.3-4.4,5.5c-0.1,0.3,0,0.7,0.1,1.1c0.6,2.4,1.1,4.9,1.7,7.3c1,4,2.4,5.2,6.9,3.5
		c0.9-0.3,1.7-1,2.5-1.6c1.1-0.9,2.1-2,3.1-3c0.8-0.7,1-1.6,0.8-2.7c-0.6-4.1-1.6-8-3.1-11.9C373.1,60.5,372.9,60.2,372.6,59.8z
		 M232.5,411.6c0.6,8.2-0.4,15.9-4.8,23.3c2.9-0.4,5.4-0.8,7.9-1.2c0.3,0,0.6-0.3,0.8-0.5c2.6-2.8,5.2-5.6,5.7-9.6
		c0.4-3.1,0.7-6.2,0.9-9.3c0.1-0.9,0-1.8,0-2.8C239.5,411.6,236.2,411.6,232.5,411.6z M105.8,116.3c1.5,4.5,2.3,8.4,2.4,12.4
		c0.1,4.1,0,8.1,0,12.5c3.3-0.2,6.7-0.5,10.2-0.7c-0.1-2.1-0.1-3.9-0.3-5.7c-0.4-4.7-1.4-9.3-3.7-13.5c-0.4-0.7-0.9-1.6-1.5-1.9
		C110.8,118.4,108.5,117.5,105.8,116.3z M542.9,172.1c-0.1,2.8-0.1,5.2-0.2,7.6c-0.1,1.1,0.4,1.8,1.3,2.4c7,4.7,13.9,9.5,20.8,14.3
		c0.4,0.3,0.8,0.5,1.5,0.9c0-2.1-0.1-4,0-5.9c0.1-1.4-0.5-2.2-1.6-3c-6.6-4.9-13.2-9.9-19.8-14.9
		C544.4,173.2,543.8,172.8,542.9,172.1z M652.9,45c0.1-1.7,0.2-3.2,0.4-4.7c0.5-4.1-1.1-7.2-4.5-9.5c-0.6-0.4-1.3-0.8-2-0.9
		c-2.5-0.3-5-0.4-7.5-0.5c-0.6,0-1.1,0.1-1.5,0.1c1.1,5.2,2.1,10.2,3.2,15.4C644.7,45,648.7,45,652.9,45z M601,467.8
		c0.2,1.9,1,3.5,1.6,5.2c0.7,2.3,2.4,3.1,4.6,3.3c3.8,0.4,7.3-0.4,10.9-1.6c2.4-0.8,3.1-2.3,3.3-4.5c0.1-1.4,0-2.7-1.3-3.7
		c-0.5-0.4-0.8-0.9-1.3-1.3c-1.4-1.4-3.6-1.9-5.4-1C609.6,466.2,605.5,467.4,601,467.8z M833.5,354.2c3.8-0.4,4.4-0.8,5.4-4
		c1.5-4.9,1.4-9.9,0.9-14.9c-0.4-4.1-4.4-7.7-8.4-8.3C830.8,336.1,832.2,345.1,833.5,354.2z M565.8,216.8c0.2-0.1,0.4-0.2,0.6-0.3
		c0-2.1,0.1-4.2,0-6.3c0-0.6-0.5-1.3-1-1.6c-7-5.4-14.1-10.7-21.2-16.1c-0.4-0.3-0.8-0.5-1.6-1c0,2.5-0.1,4.6,0,6.7
		c0,0.5,0.5,1.1,0.9,1.4c6.6,5.2,13.2,10.4,19.9,15.6C564.2,215.7,565,216.2,565.8,216.8z M241.8,404.7c3.2,0.6,8-1.6,10-4.6
		c3-4.6,3-9.7,2.9-15c-3.7,0.8-7.2,1.6-10.3,2.3C243.5,393.3,242.6,398.9,241.8,404.7z M457.2,364.2c-0.9,5-0.8,11.1,0.1,14
		c3,0.9,12.6,0.8,15-0.1c0.9-3.4,0.8-11.4-0.3-14C467.2,363.5,462.2,363.4,457.2,364.2z M449.3,349.9c0.1-0.8,0.3-1.4,0.3-2.1
		c0-3.3,0.1-6.7,0-10c-0.1-2.1-0.3-2.3-2.4-2.4c-3.7-0.1-7.4-0.1-11.1,0c-2,0-2.3,0.3-2.3,2.3c-0.1,3.5,0,7,0,10.5
		c0,0.6,0.3,1.1,0.4,1.8C439.2,350.6,444.2,350.6,449.3,349.9z M851.5,315.3c3.6,1.3,10.2,1.2,13.2-0.1c0.1-0.1,0.3-0.1,0.4-0.2
		c1.6-0.7,2.6-2,3.5-3.5c0.7-1.2-0.1-2.3-0.3-3.5c-0.1-0.5-0.3-1-0.4-1.5c-0.2-1.2-0.9-1.8-2-2.1c-6.1-1.9-12.7,2-14.1,8.2
		C851.6,313.4,851.6,314.4,851.5,315.3z M563.5,234.2c0.3-2,0.6-3.8,1-5.5c0.3-1.2-0.1-1.9-1.1-2.7c-6.3-4.5-12.5-9-18.8-13.5
		c-0.4-0.3-0.9-0.4-1.5-0.8c0.1,2.3,0.2,4.2,0.3,6.2c0,1.3,0.6,2.2,1.7,3c5.7,4.1,11.4,8.3,17.1,12.4
		C562.4,233.5,562.8,233.8,563.5,234.2z M677,378.6c0-2.9,0-5.5,0-8.1c-0.3-0.1-0.4-0.2-0.6-0.2c-5.8,0-11.7-0.1-17.5,0
		c-0.5,0-1.1,0.2-1.4,0.6c-1,1.4-1.9,2.8-0.9,4.6c1,1.7,1.8,3.4,4.3,3.4c4.7-0.1,9.4,0,14.1,0C675.7,378.8,676.3,378.7,677,378.6z
		 M225.6,108.5c3.7,0.3,7.6,0.3,11.4,0.2c0.5-6-1.9-10.4-6.1-14.1c-0.2-0.2-0.5-0.4-0.8-0.4c-2.5-0.3-5-0.6-7.4-0.4
		C223.7,98.7,224.6,103.4,225.6,108.5z M510.7,323.3c-0.3-0.1-0.6-0.3-0.8-0.4c-4.6-1-9.2-2.1-13.7-3c-3-0.6-6-0.1-8.9,0.7
		c-0.8,4.7,1.3,7.3,5.9,7.2c2.8,0,5.6,0.1,8.4,0c1.7-0.1,3.4-0.4,5.2-0.7C508.9,326.8,510.1,325.4,510.7,323.3z M688.9,361.3
		c-1.4,0-2.4,0-3.5,0c-3.5,0.1-5.5,2-5.5,5.5c0,3.3,0.1,6.7,0,10c-0.1,1.6,0.7,2.4,1.9,3c3,1.4,5.8,0,6.1-3.3
		C688.3,371.6,688.6,366.6,688.9,361.3z M727.8,178.7c-4.1-1.6-7.9-3.1-11.7-4.5c-1.7,2.7-3.2,5.1-4.5,7.2c3,3,5.9,5.9,8.8,8.8
		C723.3,187,725.8,183.2,727.8,178.7z M719.5,155.5c4.2,0,8.3,0,12.5,0c-0.4-4.7-1.2-9.1-3-13.5c-3.9,1.7-7.7,3.4-11.4,5
		C718.2,150,718.8,152.7,719.5,155.5z M695.8,192.5c-3.1,0.7-5.9,1.3-8.8,1.9c0,4.1-0.1,8.2,0,12.4c4.9-0.3,9.4-1.2,13.8-3
		C699.1,200,697.5,196.3,695.8,192.5z M699.5,126.9c2.5,1.6,4.9,3.2,7.5,4.8c1.4-1.5,2.8-2.9,4.2-4.4c1.4-1.5,3-2.9,4.4-4.5
		c-3.7-3.2-7.4-5.6-11.7-7.5C702.4,119.3,701,123.1,699.5,126.9z M632.2,352.3c0.2-2,0.6-3.8,0.7-5.6c0.1-1.8-0.3-2.1-2.1-2.1
		c-4.2,0-8.3,0-12.5,0c-0.5,0-1.1,0-1.6,0.2c-1.9,0.5-3.1,2.1-3,4c0.1,1.9,1.5,3.5,3.5,3.5C622.1,352.4,626.9,352.3,632.2,352.3z
		 M632.3,325.3c-5.2,0-10.2-0.1-15.3,0c-2,0.1-3.4,1.9-3.3,4c0.1,2.1,1.7,3.6,4.2,3.6c4.2,0.1,8.3,0,12.5,0c0.5,0,1-0.1,1.5-0.1
		C633.2,330.4,633,328,632.3,325.3z M630.7,305.8c-0.7,0-1.5,0-2.4,0c-3.5,0-7,0-10.5,0c-2.1,0-3.5,1.1-4,2.7c-0.8,2.5,1,4.9,3.8,5
		c4.2,0.1,8.3,0,12.5,0c0.2,0,0.4-0.2,0.6-0.2C632,310,632,309.2,630.7,305.8z M701.1,190.2c1.7,3.8,3.3,7.5,5,11.4
		c3.7-1.9,6.9-4.1,9.6-6.6c-3-3-5.9-5.9-8.9-8.9C705.1,187.3,703.2,188.7,701.1,190.2z M718.2,168.8c4,1.5,7.8,3,11.8,4.6
		c1.1-4,2-7.7,1.9-11.7c-4.2,0-8.3,0-12.4,0C719,164,718.6,166.3,718.2,168.8z M726.6,136.7c-2-3.7-4.1-6.9-6.6-9.5
		c-3.1,3.1-6,6-8.9,8.9c1.3,1.8,2.6,3.7,4,5.7C719,140.1,722.7,138.4,726.6,136.7z M694.1,124.8c1.5-3.9,3-7.7,4.5-11.5
		c-3.8-1.5-9.2-2.4-11.4-1.9c0,4,0,8.1,0,12.2C689.5,124,691.7,124.4,694.1,124.8z M48.7,195.7c0-5.9,0-11.5,0-17.3
		c-2.3,0.5-4.4,1-6.6,1.4c-0.5,2.8-1,5.5-1.4,8.2c-0.3,2,0.3,3.7,2.2,4.8c1,0.5,1.9,1.2,2.9,1.7C46.7,195,47.6,195.2,48.7,195.7z
		 M619.4,302.9c5.1,0,9.9,0,14.8,0c0-1,0-1.9,0-2.9c-5.6-5.3-10-6.6-14.8-3.6C619.4,298.5,619.4,300.6,619.4,302.9z M548.5,164.9
		c-0.1,0.2-0.2,0.4-0.3,0.6c5.6,4.4,11.2,8.8,16.8,13.2c0.2-0.4,0.4-0.5,0.4-0.6c-0.1-2-0.2-4.1-0.4-6.1c-0.1-1-0.2-2.3-0.8-2.9
		c-1.3-1.2-2.4-2.8-4.4-3C556,165.6,552.2,165.3,548.5,164.9z M465.5,507.2c-1.9,0-3.5,0-5,0c-1.5,0-3.1-0.2-4.8,0.2
		c0,1.7,0,3.2,0,4.7c0,0.4,0.1,0.9,0.2,1.3c0.6,2.5,2.7,4,5.1,3.9c2.3-0.2,4.3-2,4.5-4.4C465.6,511.1,465.5,509.3,465.5,507.2z
		 M337,110.8c-3.9-0.3-6.8,0.7-8.8,3.9c-0.3,0.5-0.7,1.4-0.5,1.9c0.6,1.8,1.2,3.6,2.2,5.2c0.4,0.8,1.4,1.4,2.3,1.7
		c1.9,0.7,3.6-0.6,3.7-2.6c0-1.2,0.1-2.4,0.2-3.6C336.3,115.3,336.7,113.2,337,110.8z M414,507.3c0,2.1-0.1,3.9,0,5.7
		c0.2,2.4,2.2,4.2,4.5,4.3c2.3,0.1,4.5-1.3,5-3.5c0.4-2.1,0.2-4.3,0.1-6.5C420.3,507.3,417.3,507.3,414,507.3z M544.2,230.7
		c0.3,3.7,0.6,7,0.9,9.9c1.6,0.5,2.9,1,4.2,1.4c3.4,1.1,6.6,0.4,10.2-1C554.2,237.5,549.4,234.2,544.2,230.7z M229.7,47.1
		c-3.2,0.5-7.6,3.6-9.1,6.3c4,1.7,7.9,3.3,12.4,5.2C231.8,54.4,230.7,50.8,229.7,47.1z M634.1,322.2c0-1.4,0-2.6,0-4
		c-5-0.6-9.8-0.2-14.7,0.4c0,1.3,0,2.4,0,3.6C624.3,322.2,629.1,322.2,634.1,322.2z M619.4,341.6c4.7,0,9.3,0,13.9,0
		c0.1-0.3,0.2-0.6,0.2-0.9c0.4-2.7-0.3-3.5-3-3.3c-0.8,0-1.5,0.1-2.3,0.1c-2.9,0-5.9,0-8.9,0C619.4,339,619.4,340.3,619.4,341.6z
		 M358.8,59.2c0.1,0.1,0.2,0.3,0.4,0.4c3.7-1.5,7.3-2.9,11-4.4c-1.5-2.9-3.7-5.2-6-6.1C362.4,52.5,360.6,55.9,358.8,59.2z
		 M628.8,465.7c1.3-2.6,2.1-5,2.6-7.8c-3.6-0.6-7-1.1-11-1.1C623.4,459.9,626,462.7,628.8,465.7z M35.7,195c0.3-3.2,0.6-6,1-9.1
		c-1.2,0-2.1,0.1-3,0c-1.2-0.1-1.9,0.5-2.1,1.6c-0.4,1.8-0.7,3.7-1,5.5C32.4,193.7,33.8,194.2,35.7,195z M-56.5,381.1
		c-4,0-7.8,0-11.6,0c1.7,1.6,3.6,2.8,5.4,4c0.2,0.1,0.4,0.2,0.7,0.2c1.9-0.1,3.7-0.1,5.8-0.2C-56.4,383.7-56.4,382.6-56.5,381.1z
		 M639.2,352.2c2.3-0.3,3.8-1.8,3.7-3.8c-0.1-2-1.5-3.3-3.7-3.4C639.2,347.3,639.2,349.6,639.2,352.2z M819.7,442.7
		c1.4,0.1,2.8,0.2,4.5,0.3c-0.2-1.7-0.4-3.1-0.6-4.4c-1.8,0-3.3,0-5,0C818.9,440,819.3,441.2,819.7,442.7z M864.8,341.2
		c0.9-4.3-0.3-6.8-4.1-9.3c0.1,1.5-0.1,3,0.4,4.1C862,337.8,863.4,339.2,864.8,341.2z M864.9,348.9c1.3-4.4-1.7-6.6-3.8-9.2
		c-0.2,1.4-0.3,2.7-0.2,4c0,0.3,0.2,0.7,0.4,1C862.4,346,863.5,347.3,864.9,348.9z M744.6,427c-1.1,0-2,0-3,0c0,1.9,0,3.8,0,5.7
		c1,0,2,0,3,0C744.6,430.9,744.6,429.1,744.6,427z M639.9,332.7c2.2-0.8,3.2-2.3,2.9-4c-0.3-1.8-1.5-2.9-3.4-3
		C639.6,327.9,639.7,330.2,639.9,332.7z M639.6,313.4c2.4-0.8,3.5-2.3,3.2-4.1c-0.3-1.9-1.5-2.9-3.2-3
		C639.6,308.6,639.6,311,639.6,313.4z M779.2,432.9c0.2-1.8,0.2-3.6,0-5.5c-1.1,0.1-2,0.2-2.9,0.3c0,1.8,0,3.5,0,5.3
		C777.3,432.9,778.1,432.9,779.2,432.9z M856.2,350.7c-0.9-1-1.5-1.8-2.2-2.7c-1.4-1.8-2.2-1.9-4.6-1.1
		C852.5,351.8,851.7,351.1,856.2,350.7z M855.9,346.8c0.8,1,1.4,1.8,2.1,2.6c1.4,1.7,2.3,1.9,4.6,1c-0.6-0.7-1.2-1.4-1.7-2.1
		C859.7,346.5,858.1,346.2,855.9,346.8z M848.8,350.8c-0.1-0.3-0.1-0.5-0.1-0.6c-0.5-0.7-0.9-1.4-1.4-2.1c-1.3-1.9-1.5-1.9-4-1.3
		C844.7,350.6,845.4,351.1,848.8,350.8z M861.9,329c-0.1,0.2-0.2,0.3-0.2,0.5c1.1,0.9,2.2,1.8,3.3,2.8c0-1,0-2.1,0-3.3
		c-0.6,0-0.9,0-1.3,0C863.1,329,862.5,329,861.9,329z"/>
	<path class="st0" d="M220.1,338.1c-41.2,0-75-33.6-75-74.7c0-41.5,33.4-75.1,74.8-75.1c41.5,0,75.1,33.5,75.1,74.8
		C295,304.3,261.4,338,220.1,338.1z"/>
	<path class="st0" d="M158.8,354.4c3.2,2,6,4,9,5.8c3,1.8,6,3.6,9.1,5.1c3.1,1.5,6.4,2.7,9.7,3.8c3.3,1.1,6.6,2.2,10,3.1
		c3.4,0.9,6.8,1.4,10.2,2.2c3.4,0.9,6.9,0.1,10.5,1.2c-0.8,1.8-2.3,2.1-3.7,2c-2.6-0.1-5.1-0.4-7.7-0.8c-8.5-1.4-16.7-3.8-24.8-6.9
		c-7.6-2.9-14.5-7-20.2-12.8c-0.7-0.8-1.5-1.5-2.3-2.2C158.8,355,158.8,354.9,158.8,354.4z"/>
	<path class="st0" d="M322.9,225.4c2.5,2.1,3.8,4.8,4.5,7.8c0.8,3.2,1.4,6.5,1.7,9.8c0.5,5.1,0.7,10.3,1,15.4
		c0.1,1.6,0.1,3.2-1.4,4.3c-1.5-0.7-2.1-1.9-2.2-3.4c-0.1-2.2-0.3-4.4-0.4-6.6c-0.4-8.1-0.8-16.2-2.9-24.1
		C323,227.6,323,226.5,322.9,225.4z"/>
	<path class="st0" d="M141.1,222.2c-0.1-2.7,0.9-5.1,1.9-7.4c3.3-7.4,8.1-13.9,13.6-19.8c1.5-1.6,3.2-3,5.4-3.7
		c-0.3,0.4-0.5,0.8-0.8,1.2c-2.8,3.4-5.6,6.7-8.3,10.3c-3.5,4.7-6.5,9.7-8.7,15.2C143.5,219.5,142.7,221.1,141.1,222.2z"/>
	<path class="st0" d="M239.3,372.6c1.1-0.3,2-0.6,2.9-0.8c3.4-0.9,6.9-1.6,10.3-2.6c2.4-0.7,4.7-1.7,7-2.6c1.3-0.5,2.5-1,4-0.4
		c-0.1,1.6-1.3,2.3-2.5,2.9c-3.2,1.6-6.6,2.5-10.2,3.2c-2.9,0.5-5.8,1-8.7,1.3C241.3,373.6,240.3,374,239.3,372.6z"/>
	<path class="st0" d="M328.3,271.4c1.3,1.7,1.4,3.4,1.3,5c-0.2,3.5-0.8,7.1-1.2,10.6c0,0.4-0.1,0.8-0.4,1.1c-0.3,0.3-0.7,0.8-1,0.7
		c-0.4-0.1-0.9-0.5-1.1-0.9c-0.2-0.3-0.1-0.7-0.1-1.1c0.7-4.8,1.5-9.6,2.2-14.4C327.9,272.2,328.1,272,328.3,271.4z"/>
	<path class="st0" d="M164.2,168.6c-0.2,0.3-0.5,0.8-0.9,1.2c-1.8,1.6-3.6,3.3-5.4,4.8c-1.1,0.9-2,1-2.6,0.4
		c-0.7-0.7-0.8-1.8,0.1-2.9c1.9-2.2,4.4-3.7,7-4.8C163.5,166.9,164.3,167.4,164.2,168.6z"/>
	<path class="st0" d="M327.1,293.1c0.1,0.9,0.3,1.8,0.2,2.7c-0.2,1.3-1.3,2-2.4,1.7c-1.1-0.3-1.7-1.4-1.3-2.7
		C324.1,293.3,324.8,293,327.1,293.1z"/>
	<path class="st0" d="M232.4,373.6c-1.6,1.7-3.3,2.7-5.5,2.7c-0.5,0-1.1-0.6-1.6-1c0.4-0.4,0.7-1,1.1-1.2
		C228.3,373.1,230.2,373.1,232.4,373.6z"/>
	<path class="st0" d="M140.5,227.2c-0.3,0.7-0.4,1.4-0.8,2.1c-0.5,0.9-1.4,1.1-2.1,0.7c-0.7-0.4-0.9-1.3-0.5-2.2
		C137.8,226.5,138.6,226.4,140.5,227.2z"/>
	<path class="st0" d="M612.8,238.7c2.6-8.6,7.9-12.5,15.1-11.4c6.4,0.9,11,6.3,11.1,12.8c0,6.4-4.5,11.9-10.7,12.9
		c-7.4,1.2-12.7-2.6-15.5-11.4c-0.7,0-1.5,0-2.3,0c-6,0-12-0.2-18,0c-5.6,0.2-9.4-4.1-9.3-9.2c0.2-8.9,0.1-17.8,0.1-26.7
		c0-6,3-9,9-9.4c0.2,0,0.4-0.1,0.8-0.2c-0.4-0.7-0.7-1.4-1-2c-12.3-23.2,1.7-51.5,27.5-56c21.2-3.7,41.5,11.1,44.5,32.3
		c3,21.1-11.1,40.4-32.2,43.5c-13.9,2.1-25.6-2.5-35-13c-0.6-0.7-1.2-1.7-1.9-1.7c-1.6-0.2-3.4-0.1-4.9,0.3
		c-2.5,0.7-3.6,2.6-3.8,5.1c0,0.3,0,0.6,0,0.9c0,8.9,0,17.8,0,26.7c0,0.5,0,1.1,0.1,1.6c0.4,2.6,2.3,4.8,5,4.8
		C598.3,238.7,605.6,238.7,612.8,238.7z M608.8,156.5c11.6-9.5,25.8-7.3,34.1,0c4.5,4,7.4,8.8,8.4,14.7c1.5,8.3-0.7,15.6-6.2,22.2
		c1.3,1.2,2.4,2.2,3.5,3.2c1.1,1.1,2.3,2.2,3.4,3.3c7.7-7.8,12.3-21.7,7.7-34.9c-4.7-13.7-14.4-21.8-28.7-24.3
		c-12.1-2.1-24.4,3.5-28.9,9.1C604.4,152.1,606.6,154.2,608.8,156.5z M649,175.9c0-12.8-10.3-22.9-23.1-22.9
		c-12.6,0-22.9,10.5-22.8,23c0.1,12.7,10.5,23,23.2,22.9C638.8,198.9,649,188.6,649,175.9z M625.9,229.9c-4,0-7.6,2.4-9.2,6
		c-0.3,0.6-0.5,1.3-0.4,1.9c0.3,3.5,2.2,6.1,5.2,7.8c1.7,0.9,3.4,1,5.2,0.1c2.9-1.5,5.1-3.8,6.3-6.9c0.7-1.8,0.5-3.5-0.3-5.2
		C631.3,230.7,628.8,230,625.9,229.9z"/>
	<path class="st0" d="M615.2,93.5c0,6.6-0.2,13.2,0.1,19.8c0.2,4.9-4,9-8.7,8.8c-4.5-0.2-9-0.2-13.4,0c-4.1,0.2-8.7-3.1-8.7-8.6
		c0-13.4,0-26.9,0-40.3c0-5.3,3.5-8.6,8.8-8.7c4.3,0,8.7,0.1,13,0c5.3-0.2,9.2,4.1,9,8.9C615,80.2,615.2,86.9,615.2,93.5z
		 M588.4,89.3c7.3,0.3,14.4,0.6,21.7,0.8c0-1.9,0-3.5,0-5.3c-7.3-0.2-14.5-0.4-21.7-0.6C588.4,86,588.4,87.6,588.4,89.3z
		 M589.1,102.8c0.2,1.7,0.3,3,0.5,4.5c7,0.2,13.9,0.4,20.9,0.6c-0.2-1.6-0.3-2.8-0.4-4C603.1,103.5,596.3,103.1,589.1,102.8z
		 M590.3,111.4c-0.5,1.3-0.1,2,0.9,2.4c1.8,0.7,3.6,1.5,5.5,2.1c4.6,1.3,9.1,0.9,13.7-0.3c0.1-0.8,0.1-1.5,0.1-2.2
		c0-0.3-0.1-0.6-0.1-1.1C603.7,112,597,111.7,590.3,111.4z M610.1,95.6c-7.2-0.4-14.2-0.8-21.4-1.2c0.1,1.4,0.1,2.5,0.2,4
		c7.1,0.2,14.1,0.5,21.2,0.7C610.1,97.8,610.1,96.8,610.1,95.6z M610.4,77.1c-7.7,0-15,0-22.5,0c0,1,0.1,1.7,0.1,2.6
		c7.5,0,14.8,0,22.3,0C610.3,78.8,610.4,77.9,610.4,77.1z M588.3,72c7.7-0.4,15-0.7,22.4-1.1c-0.3-0.6-0.3-1.2-0.6-1.3
		C602.7,67.3,595.6,68,588.3,72z"/>
	<path class="st0" d="M637.8,122c-1.7,0-3.5,0-5.2,0c-3.8-0.1-6.3-2.8-6.5-6.5c-0.5-6.5,3.2-9.1,8.5-8.7c2.6,0.2,5.2,0,7.7,0
		c2.9,0,5.3,0.9,6.6,3.6c1.3,3,1.4,6.1-0.5,8.9c-1.2,1.8-3.1,2.7-5.3,2.7C641.3,122,639.6,122,637.8,122z M628.9,113.5
		c5.8,1.8,11.7,1.7,17.5,1.5c1.1-3.1-1.3-5.6-4-5.4c-3.2,0.2-6.4,0-9.5,0.1C630.5,109.7,629.5,110.6,628.9,113.5z"/>
	<path class="st0" d="M637.8,100.9c-1.7,0-3.3,0-5,0c-4.2-0.1-6.7-2.7-6.8-6.9c0-0.7,0-1.4,0-2.1c0.2-3,2.1-5.3,5-6
		c0.7-0.2,1.5-0.3,2.3-0.3c3,0,5.9,0,8.9,0c2.9,0,5.3,0.9,6.6,3.6c1.3,2.9,1.4,5.9-0.4,8.7c-1.2,2-3.1,2.9-5.4,2.9
		C641.3,100.9,639.6,100.9,637.8,100.9z M646.5,93.5c1-2.6-1.2-5-3.6-5c-3.4,0-6.8-0.1-10.2,0c-3,0.1-4.2,2.1-3.5,5.1
		C633.3,94.6,642.8,94.5,646.5,93.5z"/>
	<path class="st0" d="M637.6,79.8c-1.7,0-3.3,0.1-5,0c-4.1-0.2-6.5-2.8-6.6-6.9c0-0.7,0-1.4,0-2.1c0.2-3.3,2.6-6,5.9-6.2
		c3.9-0.2,7.7-0.2,11.6,0c2.9,0.1,5.3,2.3,5.8,5.2c0.2,1.3,0.3,2.7,0.1,4.1c-0.4,3.4-2.7,5.6-6.2,5.9
		C641.4,79.9,639.5,79.8,637.6,79.8L637.6,79.8z M629,72.9c5.9,0.9,11.7,1.3,17.5,0.2c0.9-3.6-1.1-6-4.8-5.8c-2.7,0.2-5.5,0-8.2,0
		C630,67.5,628.7,68.9,629,72.9z"/>
	<path class="st0" d="M670.9,97.2c1.5,1.7,1.6,3.4,1.7,5.1c0.4,6.6,0.7,13.2,0.9,19.8c0.1,1.2,0.3,2.6-1.2,3.4
		c-1.3-0.6-1.4-1.8-1.5-2.9c-0.1-1.1-0.1-2.3-0.2-3.4c-0.1-6.4-0.1-12.9-0.2-19.3C670.5,99.1,670.7,98.3,670.9,97.2z"/>
	<path class="st0" d="M671.1,61.9c0.3,2.5,0.8,4.5,0.9,6.6c0.2,3.4,0.3,6.8,0.4,10.2c0.1,1.9-0.4,3.7-1.3,5.4
		C669.2,80.8,669.1,66.1,671.1,61.9z"/>
	<path class="st0" d="M658.2,247.4c-0.7,0.4-1.3,1.2-1.9,1.2c-2.8,0.1-5.5-0.4-8.2-1.3c0.8-1.8,2.2-1.7,3.5-1.8
		C655.7,245.3,656.6,245.6,658.2,247.4z"/>
	<path class="st0" d="M594,129.4c-1.9,0.3-3.8,0.6-5.7,0.8c-0.6,0-1.2-0.5-1.9-0.8c-0.1-0.2-0.1-0.4-0.2-0.6
		c0.4-0.2,0.7-0.5,1.1-0.7C588.5,127.8,591.4,128.2,594,129.4z"/>
	<path class="st0" d="M672.5,131.8c-0.3-0.9-0.8-1.8-0.9-2.7c-0.1-0.8,0.2-1.5,1.2-1.6c0.8-0.1,1.7,0.7,1.5,1.6
		c-0.2,1-0.7,1.9-1.1,2.8C673,131.9,672.7,131.9,672.5,131.8z"/>
	<path class="st0" d="M674.2,135.7c-0.8,0.7-1.2,1.3-1.7,1.5c-0.8,0.3-1.7-0.6-1.6-1.5c0.1-0.8,0.5-1.4,1.3-1.3
		C672.8,134.5,673.3,135.1,674.2,135.7z"/>
	<path class="st0" d="M671,92.2c-1-1.5-1.1-2.3-0.1-2.5c0.4-0.1,1.2,0.1,1.5,0.4C673.1,90.8,672.6,91.5,671,92.2z"/>
	<path class="st0" d="M390.3,472.8c0,11.5,0,22.9,0,34.4c0,0.6,0,1.2,0,1.8c-0.1,1.3-0.5,1.7-1.8,1.8c-0.4,0-0.8,0-1.1,0
		c-10.9,0-21.7,0-32.6,0c-0.4,0-0.8,0-1.1,0c-1.3-0.1-1.7-0.5-1.8-1.8c-0.1-0.5,0-1.1,0-1.6c0-23,0-46,0-69c0-3.5,0.1-3.6,3.5-3.6
		c10.5,0,21,0,31.4,0c0.7,0,1.4,0,2,0c0.9,0.1,1.4,0.6,1.5,1.5c0.1,0.7,0,1.4,0,2C390.3,449.9,390.3,461.3,390.3,472.8z
		 M354.8,492.8c0,5.1,0,10.1,0,15.1c4.9,0,9.6,0,14.5,0c0-5.1,0-10,0-15.1C364.5,492.8,359.8,492.8,354.8,492.8z M369.4,437.8
		c-4.9,0-9.7,0-14.6,0c0,5.1,0,10.1,0,15c3.4,0.4,13,0.3,14.6-0.2C369.4,447.8,369.4,442.9,369.4,437.8z M387.3,489.3
		c0-4.9,0-9.7,0-14.7c-4.9,0-9.7,0-14.5,0c-0.5,2.8-0.3,13.2,0.1,14.7C377.6,489.3,382.4,489.3,387.3,489.3z M354.8,474.6
		c0,4.9,0,9.8,0,14.7c4.9,0,9.7,0,14.7,0c0-5,0.1-9.8-0.1-14.7C364.4,474.6,359.7,474.6,354.8,474.6z M372.6,456.3
		c0,5.1,0,9.9,0,14.8c4.9,0,9.7,0,14.6,0c0-5,0-9.8,0-14.7c-0.6-0.1-1-0.1-1.5-0.1C381.5,456.3,377.2,456.3,372.6,456.3z"/>
	<path class="st0" d="M437.5,443c4.8,0,8.5,3.8,8.4,8.6c-0.1,4.6-3.9,8.3-8.5,8.3c-4.7,0-8.4-3.8-8.4-8.6
		C429.1,446.6,432.8,442.9,437.5,443z M440,446.5c-3.6-1.5-7.1,0.2-7.9,3.7c-0.2,1-0.3,2,0.6,2.7c0.9,0.7,1.8,0.3,2.6-0.1
		C437.8,451.5,439.1,449.3,440,446.5z"/>
	<path class="st0" d="M461.3,443c4.7,0,8.4,3.6,8.5,8.2c0.1,4.8-3.6,8.6-8.4,8.6c-4.7,0-8.6-3.8-8.5-8.5
		C452.9,446.7,456.7,443,461.3,443z M456.2,453c3.1,0.3,6.4-2.4,7.9-6.2c-2.1-1.3-4.1-1.3-6,0.1C456.2,448.3,455.5,450.3,456.2,453z
		"/>
	<path class="st0" d="M413.6,443c4.8,0,8.5,3.7,8.5,8.5c0,4.7-3.8,8.4-8.4,8.4c-4.7,0-8.6-3.9-8.5-8.5
		C405.2,446.7,408.9,443,413.6,443z M416.4,446.7c-2.6-1.3-4.6-1.1-6.4,0.5c-1.8,1.6-2.3,3.5-1.4,5.9
		C413.1,452.8,416,450.6,416.4,446.7z"/>
	<path class="st0" d="M367.3,271.8c0-3,0.1-5.9,0-8.9c-0.1-2.1,0.9-3.3,2.6-4.1c2.1-1,4.3-1.1,6.4-0.3c2.4,0.8,3.2,2.1,3.2,4.6
		c0,6-0.1,12,0,18c0,2.2-1,3.4-2.8,4.2c-2.1,0.9-4.3,0.9-6.4,0.1c-2.2-0.9-3-2.1-3-4.5C367.3,277.9,367.3,274.9,367.3,271.8z
		 M370.2,277.9c0.6,0.1,0.8,0.2,1.1,0.3c2,0.2,2.1,0.2,2.8-1.7c0.5-1.4,1-2.9,1.4-4.3c0.8-2.8,1.3-5.7,1.2-8.7c0-0.8,0-1.5-0.9-1.9
		c-1.6-0.8-3.2-0.8-4.8,0c-0.4,0.2-0.8,0.9-0.8,1.4C370.2,267.9,370.2,272.8,370.2,277.9z"/>
	<path class="st0" d="M351,271.8c0-3,0.1-6.1,0-9.1c-0.1-1.8,0.8-2.9,2.2-3.6c2.1-1.2,4.4-1.3,6.6-0.5c2.8,1,3.4,2.4,3.4,4.7
		c-0.1,5.9,0,11.8,0,17.8c0,2.4-0.8,3.6-3,4.5c-2.1,0.8-4.2,0.8-6.2,0c-2.1-0.9-2.9-2-2.9-4.3C351,278,351,274.9,351,271.8z
		 M353.8,277c0.7,0.1,1.2,0.3,1.7,0.3c2.4,0.1,3-0.4,3.6-2.7c1-3.5,1.2-7.1,1.1-10.8c-0.1-2-0.5-2.6-2.5-2.7
		c-0.9-0.1-1.8,0.1-2.7,0.2c-0.9,0.2-1.3,0.8-1.3,1.8C353.9,267.7,353.8,272.2,353.8,277z"/>
	<path class="st0" d="M367.6,298.5c-2.6,2-5.6,2-8.2,0.2c0.7-0.4,1.3-1,1.9-1C363.3,297.4,365.2,297.9,367.6,298.5z"/>
	<path class="st0" d="M71.5,263.4c-2.1-2-4-3.8-5.9-5.7c-0.5-0.5-1-0.9-1.4-1.5c-1.2-1.6-1-3.8,0.4-5.2c1.3-1.3,3.5-1.5,5-0.4
		c0.5,0.3,0.9,0.8,1.4,1.2c2.8,2.8,5.6,5.6,8.3,8.4c2.1,2.2,2.1,4.4,0,6.6c-3,3-6,6.1-9,9c-2.3,2.2-5.7,1.5-6.7-1.3
		c-0.6-1.7-0.1-3.1,1.1-4.4c1.7-1.7,3.3-3.3,5-5C70.3,264.7,70.8,264.2,71.5,263.4z"/>
	<path class="st0" d="M87.9,360.2c4.2-2.3,11.6-2.7,13.9-0.5c-0.3,1.1-1.2,1.6-2.1,1.6C95.7,361.4,91.7,362.1,87.9,360.2z"/>
	<path class="st0" d="M106.6,165.3c-1,0.4-1.6,0.8-2.2,1c-1.8,0.5-3.7,0.8-5.5,1.2c-0.3,0.1-0.6,0.1-0.9,0.1c-1.1,0-2.1-0.8-2.2-1.6
		c-0.1-0.8,0.6-1.9,1.6-2.2c0.2-0.1,0.4-0.1,0.7-0.1c2.4-0.2,4.8-0.1,7.2,0.7C105.6,164.5,105.9,164.8,106.6,165.3z"/>
	<path class="st0" d="M92.4,176.3c-2.9,1.4-5.6,2.2-8.5,1.8c-0.5-0.1-1.1-0.1-1.5-0.4c-1-0.5-1-1.6-0.1-2.2c0.5-0.3,1.1-0.6,1.7-0.5
		c2.5,0.2,5,0.5,7.5,0.8C91.6,175.9,91.8,176.1,92.4,176.3z"/>
	<path class="st0" d="M106.2,366.2c1.5-1,3.3-1,4.9-1.1c0.8,0,1.9-0.4,2.3,0.8c0.2,0.7-0.7,1.5-2,1.8
		C109.6,368,107.5,367.5,106.2,366.2z"/>
	<path class="st0" d="M484.4,190.8c-0.3,6-0.6,13.6-1.1,21.1c-0.1,1.7-0.5,3.3-0.8,4.9c-0.3,1.6-1.3,2.6-2.8,2.9
		c-2.7,0.5-5.4,1-8.1,1.2c-8.9,0.6-17.7,0.6-26.6-0.4c-1.4-0.2-2.8-0.5-4.2-0.8c-1.8-0.4-2.9-1.4-3.1-3.2c-0.4-3.4-1-6.8-1.2-10.2
		c-0.6-11.3-0.6-22.6,0-33.9c0.2-3,0.6-6,0.9-9.1c0.3-2.7,1.6-4.4,4.4-4.6c3.7-0.4,7.4-1,11.1-1.1c6.9-0.1,13.8,0.2,20.7,0.4
		c1.7,0.1,3.4,0.5,5.2,0.7c2.6,0.3,3.8,1.9,4.1,4.4c0.3,2.6,0.7,5.3,0.9,7.9C484,177.2,484.2,183.3,484.4,190.8z M441.5,170.4
		c4.5,0,8.8,0,13,0c0.6,0,1.3-0.1,1.7-0.5c1.2-1.1,2.6-1.3,4-0.7c3.8,1.5,7.7,1.2,11.6,1.2c2,0,3.9,0,5.9,0c0.7,0,1.3-0.1,2.2-0.1
		c-0.3-1.4-0.6-2.6-1-4c-11.4,0-22.7,0-34,0c1.2-0.6,2.3-0.8,3.5-0.8c2.3-0.1,4.6-0.1,6.8,0c6.2,0.1,12.4,0.2,18.7,0.2
		c1.5,0,3.1-0.2,4.7-0.3c-0.5-1.8-0.5-1.8-2-2.3c-7.7-2.6-15.5-2.7-23.4-1.5c-3.1,0.5-6.1,1.3-9.1,2.1c-0.7,0.2-1.5,0.4-1.6,1.4
		C442.1,166.7,441.8,168.6,441.5,170.4z M441.1,213.1c12.5,0,24.8,0,37.2,0c0.3-2.1,0.6-4.1,0.9-6.3c-2.1,0-4,0-6,0
		c-0.9,0-1.7,0.1-2.4,0.9c-1.3,1.2-3.7,1.3-4.7,0c-0.7-0.9-1.5-0.9-2.4-0.9c-3.3,0-6.7,0.1-10,0.1c-0.8,0-1.4,0.2-2,0.8
		c-2.1,1.8-4.5,1.5-6.2-0.7c-0.9,0-1.8,0-2.7,0c-0.9,0-1.7,0.1-2.9,0.2C440.3,209.2,440.7,211,441.1,213.1z M468.8,190
		c4.1,0,8,0,12.2,0c0-2.6,0-5,0-7.8c-4.7,0-9.3,0-14.1,0C467.5,184.7,468.1,187.2,468.8,190z M439.9,181.8c-0.2,2.9-0.4,5.6-0.5,8.5
		c3.9-0.2,7.4-0.4,11.1-0.5c0.8-2.6,1.5-5.2,2.4-8C448.5,181.8,444.4,181.8,439.9,181.8z M452.9,205.8c4.2,0,8.1,0,12.3,0
		c-0.7-2.8-1.3-5.4-1.8-7.7c-3.1,0-5.8,0-8.4,0C454.2,200.9,453.5,203.3,452.9,205.8z M480.1,171.3c-5.5,0-10.8,0-16.4,0
		c0.5,1.5,0.9,2.9,1.3,4.3c5.4,0,10.6,0,16,0C480.7,174.2,480.5,172.9,480.1,171.3z M466.6,181.2c5-0.2,9.8,0.2,14.4,0
		c0-1.7,0-3.1,0-4.7c-5.3,0-10.3,0-15.7,0C465.8,178.2,466.2,179.6,466.6,181.2z M442,214.2c0,0.2,0,0.3,0.1,0.3
		c0.3,0.1,0.5,0.3,0.8,0.4c3.2,1.4,6.5,2.1,10.1,2.1c6.6-0.1,13.2-0.3,19.6-2c0.6-0.2,1.3-0.2,2-0.9
		C463.6,214.2,452.9,214.2,442,214.2z M472.2,205.7c2.3,0,4.6,0,7,0c0.5-2.6,0.7-5.2,0.9-7.9c-3.3,0-6.3-0.1-9.4,0
		C471.2,200.6,471.7,203.1,472.2,205.7z M450.2,190.8c-3.8,0-7.3-0.1-11,0.5c0,2.1,0,4.1,0,6.1c3.1,0,6,0,9,0
		C448.9,195.1,449.5,193.1,450.2,190.8z M440.7,175.6c4.9,0,9.5,0,14.2,0c0.3-1.5,0.5-2.8,0.8-4.3c-4.9,0-9.5,0-14.3,0
		C441.2,172.7,440.9,174.1,440.7,175.6z M448,198.2c-3.1,0.1-5.9,0.3-8.9,0.4c0,2.6-0.3,5.1,0.7,7.6c1.8,0,3.5,0,5.3,0
		c0.8,0,1.3-0.4,1.5-1.1C447.1,202.9,447.5,200.7,448,198.2z M480.8,191.4c-4.1-0.1-7.8-0.2-11.9-0.4c0.4,2.2,0.8,4,1.2,5.7
		c3.6,0,6.8,0,10.2,0C480.4,195,480.6,193.4,480.8,191.4z M440.1,180.8c4.6,0,8.9,0,13.3,0c0.4-1.4,0.7-2.6,1.1-3.9
		c-4.7,0-9.2,0-13.8,0C440.4,178.2,440.2,179.4,440.1,180.8z M459.6,182.4c-1.2,2.2-1.9,4.5-2.3,7.1c1.5,0,2.6,0,4.1,0
		C460.8,187,460.2,184.7,459.6,182.4z M455.1,197c3.8,0.4,6.4,0.3,7.9-0.4c-0.3-0.3-0.5-0.6-0.8-0.6c-2.2,0-4.5,0.1-6.7,0.2
		C455.4,196.1,455.3,196.6,455.1,197z"/>
	<path class="st0" d="M512.4,232.3c8.5,0,15.3,6.8,15.3,15.3c0,8.7-6.8,15.4-15.5,15.4c-8.6-0.1-15.2-6.8-15.2-15.4
		C497,239.1,503.8,232.3,512.4,232.3z M520.6,238.5c-2.9-3.4-10.5-5.2-16.3-0.4c-1.9,1.6-2.9,3.4-2.7,5.9c0.3,3.6,1.3,6.9,3.8,9.4
		C510.6,248.4,515.6,243.4,520.6,238.5z M522.8,241.2c-4.7,4.8-9.5,9.6-14.4,14.6c1.6,0.5,3.4,1,5.3,1.5c0.6,0.1,1.4,0,2-0.3
		c2.1-1.2,4.3-2.3,6.2-3.8C525.7,250,525.9,245.6,522.8,241.2z"/>
	<path class="st0" d="M520.8,211.6c-1.4-1.5-1.8-3.2-1.8-5c0-3.6-0.1-7.3,0.1-10.9c0.2-6.4,0.6-12.7,0.9-19.1c0-0.4,0.1-0.7,0.1-1.5
		c0.4,0.5,0.8,0.7,0.9,1.1c0.4,1.7,1,3.4,1.1,5.1c0.3,2.9,0.4,5.9,0.4,8.9c0,6.1-0.2,12.1-0.3,18.2
		C522.2,209.4,521.9,210.6,520.8,211.6z"/>
	<path class="st0" d="M460.2,241.5c-3.4,0-6.1-2.7-6-6.1c0-3.3,2.6-5.9,5.9-5.9c3.4,0,6,2.6,6,6
		C466.1,238.9,463.5,241.5,460.2,241.5z M457.3,234.8c1.2,0.5,2.4,1.2,3.7,1.5c0.6,0.2,1.9-0.1,2-0.4c0.2-0.6,0-1.7-0.4-2.3
		C461.1,231.5,458.5,232.1,457.3,234.8z"/>
	<path class="st0" d="M529,162.8c0.2,2,0.6,4,0.6,6.1c0,5.3-0.2,10.6-0.2,15.9c0,3.1,0.1,6.2,0.2,9.3c0,0.2,0,0.5,0,0.7
		c-0.1,0.8-0.5,1.5-1.4,1.6c-1,0.1-1.6-0.6-1.7-1.5c-0.2-1.4-0.4-2.7-0.3-4.1c0.3-7.1,0.7-14.2,1.1-21.4c0.1-1.8,0.4-3.6,0.6-5.4
		c0.1-0.4,0.3-0.8,0.4-1.2C528.7,162.8,528.9,162.8,529,162.8z"/>
	<path class="st0" d="M444.3,246c3.4,0.1,6,2.8,5.9,6.2c-0.1,3.3-2.7,5.8-6.1,5.7c-3.4,0-6-2.8-5.9-6.2
		C438.3,248.4,441,245.9,444.3,246z M441,252.1c1.5,1.5,3.3,1.6,5.1,1c1.2-0.4,1.6-1.1,1-2.3c-0.4-0.7-1-1.4-1.7-1.7
		C443.5,248.1,441.8,249.3,441,252.1z"/>
	<path class="st0" d="M482.1,235.6c0,3.3-2.6,5.9-5.9,5.9c-3.4,0-6.1-2.7-6-6.1c0-3.4,2.8-6,6.2-5.9
		C479.7,229.6,482.2,232.2,482.1,235.6z M479.3,235.1c-1.1-2.5-2.6-3.3-4.4-2.4c-1.8,0.9-2.2,2.5-1.1,4.6
		C475.8,237.2,477.7,236.7,479.3,235.1z"/>
	<path class="st0" d="M466.2,252c0,3.3-2.6,5.9-5.9,5.9c-3.4,0-6.1-2.6-6.1-6c0-3.3,2.6-5.9,5.9-6
		C463.5,245.9,466.2,248.5,466.2,252z M463.2,250.7c-0.6-0.6-1.1-1.2-1.7-1.5c-1.2-0.7-2.7-0.4-3.7,0.7c-0.9,1-1.1,2.4-0.5,3.5
		c0.4,0.8,1,1.1,1.8,0.7C460.8,253.4,462.1,252.5,463.2,250.7z"/>
	<path class="st0" d="M482.1,252c0,3.4-2.6,5.9-5.9,5.9c-3.4,0-6.1-2.6-6-6c0-3.3,2.6-5.9,5.9-5.9
		C479.6,245.9,482.2,248.6,482.1,252z M479.4,251.5c-0.7-1.9-1.8-2.8-3.4-2.7c-1.3,0.1-2.3,0.8-2.7,2.1c-0.5,1.4-0.1,2.5,1.2,3.5
		C476.1,253.5,477.7,252.5,479.4,251.5z"/>
	<path class="st0" d="M450.2,235.6c0,3.4-2.7,6-6.2,5.9c-3.3-0.1-5.8-2.7-5.8-6c0-3.4,2.7-6,6.2-5.9
		C447.7,229.6,450.2,232.2,450.2,235.6z M444,237.4c0.2-0.1,0.8-0.1,1.3-0.4c0.7-0.4,1.7-0.7,1.9-1.3c0.4-1.1-0.3-2-1.2-2.7
		c-1.3-1-3.3-0.8-4.2,0.6c-0.5,0.7-0.8,1.8-0.6,2.5C441.5,237.1,442.5,237.5,444,237.4z"/>
	<path class="st0" d="M526.6,206.7c0-1.2,0.7-2.1,1.8-2.2c1.1-0.1,2,0.9,2,2.2c0,1.2-0.8,2.2-1.8,2.2
		C527.6,209,526.7,208,526.6,206.7z"/>
	<path class="st0" d="M521.7,156.9c0.8,0,1.6,0.7,1.6,1.6c0,0.9-0.7,1.8-1.6,1.8c-0.8,0-1.5-0.6-1.6-1.6
		C520.1,157.7,520.8,156.9,521.7,156.9z"/>
	<path class="st0" d="M523.3,165.9c0,1.3-0.7,2.2-1.4,2.2c-1,0-1.2-0.8-1.2-1.6c0-0.8,0.3-1.7,1.2-1.6
		C522.5,164.9,523,165.6,523.3,165.9z"/>
	<path class="st0" d="M521.7,219.7c-0.9-1.8-0.9-1.8,0.6-3.3c0.4,0.6,1,1.2,1.1,1.8C523.4,219.2,522.4,219.3,521.7,219.7z"/>
	<path class="st0" d="M681.8,482.7c0.4-7,0.7-13.7,1.3-20.4c0.4-4.5,1-5.1,5.4-5.9c5.6-0.9,11.2-0.9,16.8-0.8
		c4.4,0.1,8.8,0.5,13.1,1c3.2,0.4,4,1.1,4.3,4.3c0.6,5.1,1,10.3,1.1,15.4c0.3,8.5,0.1,17-0.7,25.5c-0.1,1.2-0.3,2.4-0.5,3.6
		c-0.3,1.7-1.3,2.9-3.1,3.2c-1.6,0.3-3.1,0.7-4.7,0.8c-8.6,0.7-17.3,0.8-25.9-0.3c-0.2,0-0.5,0-0.7-0.1c-3.9-0.6-4.9-1.4-5.2-5.4
		C682.6,496.7,682.2,489.6,681.8,482.7z M685.5,484.9c0,1.5-0.2,2.7,0,3.7c1.1,4.3,2.3,8.5,3.5,12.7c0.3,1.2,1.1,1.6,2.3,1.9
		c7.3,1.4,14.6,1.9,22,1.8c1.2,0,1.9-0.5,2.5-1.5c2.1-3.7,3.7-7.7,4.4-11.9c0.5-2.9,0.9-5.8,0.4-9.1c-1.4,0-2.8,0-4.1,0
		c-2.2,0-4.5,0.1-6.9,0.2c0,0.3-0.1,0.8-0.2,1.4c-0.3,1.6-0.6,3.3-1,4.9c-0.3,1.1-1,1.9-2.2,2c-1.3,0.1-2.1-0.7-2.6-1.8
		c-0.4-0.8-0.7-1.7-0.9-2.6c-0.3-1.4-0.4-2.9-0.6-4.3c-0.3-2.2-0.4-4.5-1.7-6.7c-1.1,1.5-1.1,3-1.3,4.4c-0.2,1.1-0.4,2.2-0.8,3.3
		c-0.5,1.6-1.6,2.3-3.3,2.2c-1.4-0.1-2.7-0.2-4.1-0.3C689.2,485.1,687.5,485,685.5,484.9z M720.9,478.3c-0.1-4.6-0.8-9.1-1.9-13.5
		c-0.1-0.5-1-1.1-1.6-1.3c-3.9-1.1-7.9-2.3-11.9-3.1c-4.3-0.9-8.7-1-13.1-0.2c-2.5,0.4-4,1.5-4.2,4.1c0,0.4-0.2,0.9-0.3,1.3
		c-1.3,5.1-2.1,10.2-2.2,15.7c3.1,0,6.1,0,9.3,0c0.1-0.9,0.3-2,0.5-3c0.3-2.4,1.1-4.6,2.7-6.4c1.7-2,3.4-2.1,4.9,0
		c1.1,1.6,1.7,3.5,2.5,5.3c0.2,0.6,0.4,1.2,0.6,1.9c1.9-2.2,2.2-2.2,4.6-1.1c1,0.5,2.2,0.8,3.3,0.8
		C716,478.9,718.3,478.5,720.9,478.3z"/>
	<path class="st0" d="M819.7,493.4c-9.9,0-17.8-7.9-17.8-17.8c0-9.9,7.9-17.9,17.8-17.9c9.8,0,17.9,8,17.9,17.8
		C837.5,485.4,829.5,493.4,819.7,493.4z M827.4,465.2c-1.6-2.7-2.9-3.9-4.6-4.3c-4.8-0.9-9.2,0.1-12.9,3.4c-0.5,0.4-1,1-1.2,1.6
		c-0.9,3.4-1.6,6.9-1.2,10.5c0.3,2.3,1.3,4.3,3,5.7C816.2,476.4,821.7,470.9,827.4,465.2z M829,468.8c-5.1,5.2-10.2,10.3-15.3,15.4
		c3.7,2.7,7.9,2.8,11.6-0.4C830.1,479.9,831.9,476.2,829,468.8z"/>
	<path class="st0" d="M740.3,493.1c1.8,0,3.6,0,5.5,0c1.4,0,1.8,0.4,1.8,1.8c0.1,2,0.1,3.9,0,5.9c0,1.3-0.5,1.8-1.8,1.8
		c-3.8,0.1-7.6,0.1-11.4,0c-1.3,0-1.8-0.5-1.8-1.8c-0.1-2-0.1-3.9,0-5.9c0.1-1.4,0.4-1.7,1.8-1.8
		C736.3,493.1,738.3,493.1,740.3,493.1z M735.6,499.6c1.1,0,2,0,3.2,0c0.1-1.2,0.3-2.4,0.4-3.6c-1.4,0-2.5,0-3.6,0
		C735.6,497.3,735.6,498.4,735.6,499.6z"/>
	<path class="st0" d="M780.9,493.1c1.7,0,3.5,0,5.2,0c1.8,0,2.2,0.4,2.2,2.1c0,1.8,0.1,3.6,0,5.5c0,1.4-0.5,1.9-1.9,1.9
		c-3.7,0.1-7.4,0.1-11.1,0c-1.5,0-1.9-0.5-1.9-1.9c-0.1-1.9-0.1-3.8,0-5.7c0-1.5,0.4-1.9,1.9-1.9C777.1,493.1,779,493.1,780.9,493.1
		z M776.2,499.6c1.6,0,2.9,0,4.3,0c0.1-1.3,0.2-2.3,0.4-3.5c-1.7,0-3.2,0-4.7,0C776.2,497.3,776.2,498.4,776.2,499.6z"/>
	<path class="st0" d="M740,478.1c1.8,0,3.6,0,5.4,0c1.7,0,2,0.3,2.1,1.9c0.1,1.9,0.1,3.8,0,5.7c0,1.4-0.4,1.8-1.8,1.8
		c-3.8,0.1-7.6,0.1-11.3,0c-1.5,0-1.8-0.5-1.9-2c-0.1-1.8-0.1-3.6,0-5.4c0.1-1.7,0.3-2,2-2C736.4,478,738.2,478.1,740,478.1z
		 M735.5,484.4c1.9,0,3.6,0,5.4,0c0.2-1.2,0.3-2.2,0.5-3.4c-2,0-3.9,0-5.8,0C735.5,482.2,735.5,483.2,735.5,484.4z"/>
	<path class="st0" d="M760.5,493.1c1.8,0,3.6,0,5.5,0c1.6,0,2,0.4,2,2.1c0,1.7,0,3.5,0,5.2c0,1.8-0.4,2.2-2.1,2.2
		c-3.6,0-7.3,0-10.9,0c-1.6,0-2-0.5-2-2.1c-0.1-1.7,0-3.5,0-5.2c0-1.8,0.4-2.1,2.1-2.2C756.8,493.1,758.7,493.1,760.5,493.1z
		 M755.9,496.1c0,1.3,0,2.4,0,3.5c1.6,0,3.1,0,4.6,0c0.1-1.2,0.2-2.3,0.3-3.5C759.2,496.1,757.6,496.1,755.9,496.1z"/>
	<path class="st0" d="M780.8,478.1c1.9,0,3.8,0,5.7,0c1.5,0,1.9,0.4,1.9,1.9c0.1,1.9,0.1,3.8,0,5.7c0,1.3-0.5,1.8-1.8,1.8
		c-3.9,0.1-7.7,0-11.6,0c-1.1,0-1.7-0.6-1.7-1.7c0-2,0-3.9,0-5.9c0-1.4,0.4-1.7,1.8-1.8C777,478,778.9,478.1,780.8,478.1z
		 M776.3,481c0,1.2,0,2.3,0,3.5c2.1,0,4,0,6.1,0c0.1-1.2,0.2-2.3,0.3-3.5C780.4,481,778.4,481,776.3,481z"/>
	<path class="st0" d="M760.4,478.1c1.9,0,3.8,0,5.7,0c1.5,0,1.8,0.3,1.9,1.9c0.1,1.9,0.1,3.8,0,5.7c0,1.4-0.4,1.8-1.8,1.8
		c-3.9,0.1-7.7,0-11.6,0c-1.1,0-1.7-0.6-1.7-1.7c0-2-0.1-3.9,0-5.9c0.1-1.4,0.5-1.8,2-1.8C756.7,478,758.6,478.1,760.4,478.1z
		 M755.8,481c0,1.3,0,2.3,0,3.4c2.1,0,4.1,0,6.1,0c0.1-1.2,0.2-2.2,0.3-3.4C760,481,758,481,755.8,481z"/>
	<path class="st0" d="M739.9,472.4c-1.7,0-3.5,0-5.2,0c-1.7,0-2-0.4-2.1-2c-0.1-1.8-0.1-3.6,0-5.5c0.1-1.6,0.4-1.9,1.9-1.9
		c3.7,0,7.4,0,11.2,0c1.6,0,1.9,0.3,2,1.8c0.1,1.9,0.1,3.8,0,5.7c-0.1,1.5-0.4,1.8-2,1.8C743.7,472.4,741.8,472.4,739.9,472.4z
		 M735.5,469.3c2.5,0,4.9,0,7.5,0c0.1-1.2,0.2-2.2,0.3-3.4c-2.7,0-5.2,0-7.9,0C735.5,467.1,735.5,468.1,735.5,469.3z"/>
	<path class="st0" d="M760.4,472.4c-1.8,0-3.6,0-5.4,0c-1.6-0.1-2-0.4-2-2c-0.1-1.8-0.1-3.6,0-5.4c0.1-1.5,0.4-1.9,1.9-1.9
		c3.8,0,7.6,0,11.4,0c1.4,0,1.7,0.4,1.8,1.8c0.1,1.9,0.1,3.8,0,5.7c0,1.5-0.4,1.9-1.9,1.9C764.2,472.4,762.3,472.4,760.4,472.4z
		 M755.9,465.9c0,1.2,0,2.3,0,3.4c2.7,0,5.2,0,7.8,0c0.2-1.2,0.3-2.2,0.5-3.4C761.3,465.9,758.7,465.9,755.9,465.9z"/>
	<path class="st0" d="M780.8,463c1.8,0,3.6,0,5.4,0c1.8,0,2.1,0.3,2.1,2.2c0,1.7,0,3.5,0,5.2c0,1.6-0.4,2-2,2c-3.7,0-7.4,0-11.1,0
		c-1.5,0-1.8-0.4-1.9-1.9c0-1.9-0.1-3.8,0-5.7c0-1.4,0.4-1.7,1.8-1.8C777,462.9,778.9,463,780.8,463z M776.2,469.4
		c2.9,0,5.5,0,8.2,0c0.1-1.2,0.2-2.3,0.4-3.4c-3,0-5.7,0-8.6,0C776.2,467.1,776.2,468.2,776.2,469.4z"/>
	<path class="st0" d="M819.6,508.1c-2.5,0-4.6-2.2-4.6-4.7c0-2.5,2.1-4.6,4.7-4.7c2.6,0,4.8,2.2,4.7,4.8
		C824.2,506.1,822.1,508.2,819.6,508.1z"/>
	<path class="st0" d="M829.8,503.4c0-2.6,2.1-4.6,4.7-4.6c2.7,0,4.7,2.2,4.6,4.9c-0.1,2.6-2.2,4.5-4.8,4.4
		C831.7,508.1,829.8,506,829.8,503.4z"/>
	<path class="st0" d="M809.4,503.4c0,2.6-1.9,4.7-4.4,4.8c-2.7,0.1-4.8-2-4.8-4.7c0-2.6,2-4.6,4.6-4.7
		C807.3,498.8,809.4,500.8,809.4,503.4z"/>
	<path class="st0" d="M122.8,206.6c0,1.7-1.3,3.3-3,3.4c-1.5,0.1-2.9-1.3-3-2.8c0-1.6,1.5-3.3,3-3.4
		C121.4,203.7,122.7,205,122.8,206.6z"/>
	<path class="st0" d="M123.4,320.6c0,1.6-1.4,2.9-2.9,2.9c-1.6,0-3.1-1.6-3.1-3.3c0-1.5,1.4-2.9,2.9-2.9
		C121.9,317.3,123.5,318.9,123.4,320.6z"/>
	<path class="st0" d="M112,299.4c1.7,0,3,1.4,3,3.3c0,1.6-1.1,2.8-2.7,2.8c-1.7,0.1-3.1-1.3-3.2-3.2
		C109.1,300.7,110.3,299.4,112,299.4z"/>
	<path class="st0" d="M105.2,266.8c-1.6,0-2.9-1.3-2.9-3c0-1.8,1.2-3.1,2.8-3.2c1.7,0,2.9,1.3,3,3
		C108.1,265.4,106.9,266.8,105.2,266.8z"/>
	<path class="st0" d="M106.9,280.3c1.7,0,3,1.5,2.9,3.3c0,1.6-1.4,2.9-2.9,2.9c-1.6,0-3-1.6-2.9-3.4
		C104.1,281.5,105.4,280.3,106.9,280.3z"/>
	<path class="st0" d="M111.7,227.9c-1.6,0-2.9-1.2-3-2.8c0-1.8,1.3-3.3,3-3.3c1.6,0,2.7,1.1,2.8,2.7
		C114.7,226.4,113.4,227.8,111.7,227.9z"/>
	<path class="st0" d="M109.6,243.9c0,1.9-1.1,3.1-2.8,3.2c-1.8,0-2.9-1.2-2.9-3c0.1-1.9,1.2-3.1,2.9-3.1
		C108.5,240.9,109.6,242.1,109.6,243.9z"/>
	<path class="st0" d="M134.6,336.7c-0.1,1.6-1.4,2.8-3,2.8c-1.6-0.1-3-1.6-2.9-3.2c0.1-1.6,1.4-2.8,3-2.7
		C133.3,333.6,134.6,335,134.6,336.7z"/>
	<path class="st0" d="M130.9,193.6c-1.6,0.1-2.9-1.2-2.9-2.8c0-1.6,1.2-3,2.8-3.1c1.6-0.1,3,1.1,3,2.7
		C133.9,192,132.6,193.5,130.9,193.6z"/>
	<path class="st0" d="M760.1,398.9c-12.3-0.5-24.6-0.9-36.9-1.6c-4.3-0.2-8.6-1.1-12.9-1.7c-0.8-0.1-1.6-0.4-2.4-0.6
		c-2-0.6-3.4-1.8-3.9-3.8c-0.7-2.8-1.5-5.6-1.8-8.4c-0.7-7.7-1.3-15.4-1.6-23.2c-0.5-13.2-0.1-26.4,1.2-39.6
		c0.3-3.3,1.1-6.6,1.7-9.9c0.6-3.4,2.6-5.4,6-5.9c5.2-0.7,10.4-1.6,15.6-2c17.4-1.4,34.9-1.3,52.4-0.9c9.9,0.2,19.9,0.7,29.7,2.2
		c1.6,0.3,3.3,0.7,4.9,1.1c2.1,0.5,3.5,1.9,4,3.9c0.7,2.9,1.5,5.8,1.8,8.7c0.7,7.9,1.3,15.9,1.6,23.9c0.5,12.8,0.1,25.5-1.2,38.2
		c-0.3,3.4-1.1,6.7-1.7,10.1c-0.6,3.5-2.7,5.5-6.2,6c-4.5,0.7-9,1.6-13.5,1.8C784.7,398,772.4,398.4,760.1,398.9z M816.1,363.3
		c0.9-4.9,0.6-9.5,0.6-14.3c-6.4-0.3-12.5-0.6-18.6-0.8c-6.1-0.2-12.3-0.4-18.4-0.5c-2.3-0.1-4.6-0.1-6.8-0.2
		c-6.1-0.2-12.1-0.5-18.2-0.7c-5.7-0.2-11.4-0.4-17.1-0.6c-10.8-0.3-21.5-0.6-32.3-0.9c-0.6,0-1.1,0.1-1.8,0.2c0,3.1,0,6,0,8.9
		c0,3,0.2,6,0.2,9.1c0.9,0,1.5,0,2.1,0c13.8,0.1,27.7,0.1,41.5,0.1c20.7,0,41.5-0.1,62.2-0.2C811.6,363.6,813.7,363.4,816.1,363.3z
		 M703.7,335.9c1.5,0,2.7-0.1,3.9,0c7.3,0.4,14.5,0.8,21.8,1.2c11.7,0.5,23.3,0.9,35,1.4c8.1,0.3,16.2,0.6,24.3,0.9
		c7.2,0.2,14.4,0.4,21.6,0.6c1.9,0.1,3.9,0,6.1,0c-0.3-2.6-0.5-4.9-0.8-7.3c-1,0-1.8,0-2.5,0c-10.2,0-20.5,0.1-30.7,0
		c-8.5-0.1-17-0.6-25.5-1c-9.5-0.5-18.9-1.2-28.4-1.6c-6-0.3-12-0.4-18-0.6c-2-0.1-4.1,0-6.2,0C704.2,331.6,703.9,333.6,703.7,335.9
		z M703.6,344.4c0.6,0,1.1,0.1,1.5,0.1c5.8,0.2,11.7,0.3,17.5,0.4c7.3,0.2,14.6,0.3,21.9,0.5c6.1,0.2,12.3,0.3,18.4,0.5
		c8.2,0.3,16.4,0.5,24.6,0.8c6,0.2,12,0.4,18,0.6c2.5,0.1,5,0.3,7.5,0.3c1.2,0,2.4,0,3.8,0c-0.2-2.3-0.3-4.2-0.4-6.1
		c-5.5-0.2-10.6-0.3-15.8-0.5c-6.4-0.2-12.7-0.4-19.1-0.6c-7-0.3-14.1-0.5-21.1-0.8c-5.5-0.2-11.1-0.6-16.6-0.9
		c-5.8-0.3-11.5-0.6-17.3-0.9c-6.1-0.3-12.1-0.6-18.2-0.9c-1.5-0.1-3,0-4.7,0C703.6,339.4,703.6,341.7,703.6,344.4z M704.6,328.3
		c0.5,0.1,0.8,0.2,1.1,0.2c8.4,0.3,16.8,0.6,25.2,0.9c5.9,0.2,11.8,0.6,17.7,0.8c12,0.5,24,1.1,35.9,1.4c9.8,0.3,19.6,0.1,29.4,0.2
		c0.4,0,0.9-0.1,1.6-0.2c-0.6-2.6-1.1-5-1.7-7.4c-36.4,0.5-72.4-0.4-108.5-1.5C705.1,324.7,704.8,326.4,704.6,328.3z M816,364.2
		c-1.3,0-2.4,0-3.4,0c-1.8,0.1-3.6,0.2-5.5,0.2c-2.8,0-5.6,0-8.4,0c-18.5,0-36.9,0.1-55.4,0.1c-12.5,0-25.1-0.1-37.6-0.1
		c-0.7,0-1.3,0.1-2.1,0.2c0.2,2.2,0.3,4.2,0.5,6.2c37.1,0,73.9,0,110.9,0C815.3,368.6,815.6,366.5,816,364.2z M705.6,321.3
		c4.1,1.1,104,2.3,107.7,1.3c-0.7-2.1-1.4-4.2-2.1-6.4c-0.6,0-1,0-1.4,0c-13.1-0.1-26.3-0.4-39.4-0.3c-19.3,0.2-38.6,0.6-57.8,0.9
		c-2,0-4.1,0.3-6.2,0.5C706.1,318.7,705.8,320,705.6,321.3z M706.7,384.6c0.6,0.1,1,0.1,1.4,0.1c5.6,0,11.2,0,16.9,0
		c10.9,0,21.9,0,32.8,0c9.9,0.1,19.7,0.3,29.6,0.3c7.4,0,14.9-0.3,22.3-0.4c0.7,0,1.5-0.1,2.4-0.2c0.4-1.9,0.8-3.7,1.3-5.6
		c-0.7,0-1.1-0.1-1.4-0.1c-18.6-0.1-37.2-0.4-55.8-0.4c-14.8,0-29.6,0.4-44.4,0.6c-2,0-4.1,0.3-6.2,0.5
		C705.9,381.1,706.3,382.8,706.7,384.6z M706.8,316c0.7,0.1,1.2,0.2,1.6,0.2c1.8-0.1,3.6-0.2,5.5-0.3c4.7-0.2,9.4-0.4,14.1-0.5
		c9.5-0.2,19-0.5,28.5-0.6c17.2-0.1,34.3,0,51.5,0c0.9,0,1.7-0.1,2.7-0.1c-0.2-0.9-0.3-1.5-0.5-2c-0.9-3.4-1.1-3.4-4.5-3.4
		c-11.4-0.1-22.8-0.2-34.2-0.4c-8.3-0.2-16.5-0.5-24.8-0.8c-5.5-0.2-11.1-0.2-16.6-0.4c-6.6-0.2-13.2-0.2-19.5,2.5
		c-0.7,0.3-1.5,0.6-1.8,1.2C708.1,312.7,707.5,314.3,706.8,316z M811.4,386c-11.5-0.1-23.1-0.3-34.6-0.3
		c-11.6-0.1-23.2-0.1-34.9-0.1c-11.5,0-23,0.1-34.6,0.1c-0.3,1.2,0.1,1.6,1,1.9c2.3,0.7,4.6,1.7,6.9,2.2c10.4,2.1,20.9,2.9,31.4,3.6
		c17,1.1,34,0.1,50.9-1.8c4.3-0.5,8.3-1.6,12.2-3.4C810.9,387.6,811.5,387,811.4,386z M814.6,372.5c-3.5-0.5-108.8-0.9-110.5-0.3
		c0.4,2,0.8,4,1.2,6.1c2.7-0.1,5.2-0.3,7.7-0.4c4.9-0.2,9.9-0.4,14.8-0.4c9.3-0.1,18.5-0.1,27.8-0.1c8,0,15.9,0.3,23.9,0.3
		c10.6,0.1,21.1,0,31.7,0c0.7,0,1.5,0,2.4,0C813.9,375.9,814.2,374.3,814.6,372.5z M733.7,306.1c0.4,0,0.9,0,1.3,0
		c8.1,0.2,16.2,0.4,24.3,0.6c6.4,0.2,12.7,0.6,19.1,0.7c6.2,0.2,12.4,0.2,18.7,0.3c0.1,0,0.2-0.1,0.3-0.2
		C776.3,302.8,755.1,304,733.7,306.1z"/>
	<path class="st0" d="M821.5,304.1c-0.4,0.4-0.7,0.6-1.2,1C820.2,304,820.4,303.8,821.5,304.1z"/>
	<path class="st0" d="M183.7,145.2c2.5,2.1,2.6,5.1,0.3,8.9c-1.6-2-2.4-4.2-2.1-6.7C182.1,146.6,183.1,145.9,183.7,145.2z"/>
	<path class="st0" d="M424,496.2c-2.2,0-3.8-2.1-3.2-4.2c0.1-0.4,0.3-0.9,0.5-1.3c1.6-3.6,3.2-7.2,4.9-10.8c0.3-0.6,0.6-1.2,1.1-1.7
		c1.1-1.1,2.7-1.3,4-0.5c1.3,0.8,1.9,2.2,1.5,3.7c-0.2,0.9-0.7,1.7-1.1,2.5c-1.5,3.3-2.9,6.5-4.4,9.8
		C426.6,495.2,425.6,496.1,424,496.2z"/>
	<path class="st0" d="M445.9,480.8c-0.1,0.3-0.2,0.9-0.5,1.5c-1.7,3.9-3.5,7.8-5.3,11.6c-0.8,1.7-2.1,2.4-3.6,2.2
		c-2.3-0.3-3.5-2.5-2.6-4.8c1-2.5,2.2-4.9,3.3-7.3c0.8-1.7,1.5-3.5,2.4-5.2c0.7-1.4,2.3-1.9,3.7-1.5
		C444.8,477.8,445.8,479.1,445.9,480.8z"/>
	<path class="st0" d="M468.4,477.2c2.4-0.1,4.1,2.1,3.4,4.4c-0.3,1.1-0.9,2.1-1.4,3.1c-1.3,2.8-2.6,5.7-3.9,8.5
		c-0.3,0.6-0.5,1.1-0.9,1.6c-1,1.3-2.7,1.6-4.1,1c-1.4-0.7-2.1-2.3-1.7-3.8c0.1-0.3,0.2-0.6,0.3-0.9c1.7-3.9,3.5-7.7,5.2-11.6
		C466.1,478.1,467.1,477.4,468.4,477.2z"/>
	<path class="st0" d="M458.9,481c-0.1,0.2-0.2,0.8-0.4,1.4c-1.7,3.8-3.4,7.6-5.1,11.4c-0.2,0.4-0.4,0.8-0.7,1.2
		c-0.9,1.1-2.4,1.5-3.7,1c-1.4-0.5-2.2-1.7-2.1-3.2c0.1-0.7,0.3-1.5,0.6-2.2c1.6-3.5,3.2-7.1,4.8-10.6c0.3-0.5,0.5-1.1,0.9-1.6
		c0.9-1.1,2.4-1.5,3.7-1C458.1,478,458.9,479.2,458.9,481z"/>
	<path class="st0" d="M410.9,496.2c-1.7,0-3.3-1.3-3.3-3c0-0.7,0.1-1.4,0.4-2c1.7-4,3.5-7.9,5.3-11.8c0.2-0.4,0.5-0.8,0.8-1.1
		c1-1,2.3-1.2,3.6-0.7c1.3,0.6,2.1,1.6,2,3c0,0.7-0.2,1.5-0.5,2.2c-1.6,3.7-3.3,7.3-4.9,11C413.5,495.1,412.5,496,410.9,496.2z"/>
	<path class="st0" d="M392.3,120.8c0,11.8-9.6,21.3-21.4,21.2c-11.8,0-21.3-9.6-21.2-21.4c0.1-11.8,9.6-21.2,21.4-21.2
		C382.9,99.5,392.3,109,392.3,120.8z M389.2,118.7c-0.5-9.6-9.5-17-19.8-16.3c-8.6,0.5-17,8.9-16.3,16.3
		C365.1,118.7,377.1,118.7,389.2,118.7z M377.2,127.2c2.7,0.1,5.1,0.2,7.6,0.3c1.4,0.1,2.3-0.4,2.7-2.1c-3.5-0.1-6.8-0.3-10.3-0.4
		C377.2,125.8,377.2,126.3,377.2,127.2z M371.9,133c-3.6-0.4-7-0.6-10.8-0.5c2.9,3,6.3,2,9.3,2.3c0.5,0.1,1-0.1,1.5-0.2
		C371.9,134.1,371.9,133.6,371.9,133z M365.5,124.9c-0.1,1.4,0.6,2,1.9,2c1.6,0,3.3,0,5,0c0-0.7,0.1-1.2,0.1-2
		C370.1,124.9,367.9,124.9,365.5,124.9z M355.9,124.4c-0.1,0.2-0.3,0.4-0.4,0.5c0.4,0.5,0.8,1.4,1.3,1.5c1.7,0.2,3.4,0.1,5.2,0.1
		c0-0.6,0-1.1,0-1.8C359.9,124.6,357.9,124.5,355.9,124.4z M381.2,133.1c-2.1,0-3.9,0-5.8,0c-0.1,0.6-0.2,1.2-0.3,1.9
		C377.3,135.1,379.5,136,381.2,133.1z"/>
	<path class="st0" d="M530.8,477.9c-2.7,0-5.3,0-8,0c-1.9,0-2.3-0.4-2.3-2.2c0-3.1,0-6.2,0-9.3c0-1.8,0.4-2.2,2.1-2.2
		c5.3,0,10.6,0,15.9,0c1.8,0,2.2,0.4,2.2,2.4c0,3,0,6.1,0,9.1c0,1.9-0.3,2.2-2.3,2.3C536,477.9,533.4,477.9,530.8,477.9z
		 M523.5,471.9c4.9,0.1,9.6-0.7,14.3-1.4c0-1.2,0-2.2,0-3.3c-4.8,0-9.5,0-14.3,0C523.5,468.8,523.5,470.2,523.5,471.9z"/>
	<path class="st0" d="M530.5,462c-2.6,0-5.2,0-7.7,0c-1.8,0-2.2-0.4-2.2-2.1c0-3.2,0-6.4,0-9.6c0-1.6,0.4-2,2-2c5.4,0,10.8,0,16.1,0
		c1.7,0,2.1,0.4,2.1,2.2c0,3.1,0,6.2,0,9.3c0,1.7-0.4,2.1-2.2,2.2C535.9,462,533.2,462,530.5,462z M523.6,451.2c0,1.8,0,3.4,0,5.1
		c4.9-0.1,9.6-0.5,14.3-1.5c0-1.4,0-2.4,0-3.6C533,451.2,528.3,451.2,523.6,451.2z"/>
	<path class="st0" d="M539.1,493.1c0,4.8-3.8,8.5-8.5,8.4c-4.6-0.1-8.4-3.9-8.4-8.5c0-4.6,3.8-8.4,8.4-8.5
		C535.3,484.6,539.1,488.4,539.1,493.1z M525,493.6c1.8,0.6,3.4,1.8,5.4,0.9c2-0.9,3.7-2.3,5-4c-1.5-2.4-3.4-3.3-5.9-2.8
		C526.9,488.2,525.4,490.1,525,493.6z"/>
	<path class="st0" d="M307.6,349c-1.5,1.5-2.9,3.1-4.5,4.5c-0.5,0.4-1.4,0.7-2,0.6c-5-0.6-9.9-1.3-14.8-2c-0.6-1-0.4-1.7,0.3-2.4
		c0.7-0.6,1.2-1.4,2-1.9c0.5-0.4,1.2-0.7,1.8-0.7c5.7,0.4,11.5,0.9,17.2,1.3C307.5,348.7,307.5,348.9,307.6,349z"/>
	<path class="st0" d="M320.5,332.9c-1.1,1.6-2.1,2.8-2.9,4.1c-0.6,0.9-1.4,1.3-2.5,1.2c-5.2-0.5-10.4-1-16-1.6c0.9-1,1.6-1.6,2-2.4
		c1.4-2.5,3.3-3.1,6.2-2.7c3.9,0.6,8,0.7,12,1C319.5,332.6,319.8,332.7,320.5,332.9z"/>
	<path class="st0" d="M314.4,341.2c-1,1.3-1.8,2.5-2.7,3.6c-0.5,0.7-1.1,0.8-2,0.7c-4.3-0.6-8.6-1.2-12.9-1.8
		c-1.2-0.2-2.5-0.3-4.2-0.5c1.5-1.5,2.6-2.7,3.8-3.8c0.3-0.3,0.8-0.3,1.3-0.3c5.2,0.5,10.4,1.1,15.6,1.6
		C313.6,340.8,313.9,341,314.4,341.2z"/>
	<path class="st0" d="M322.1,328.8c-5.1-0.3-10.2-0.7-15.6-1c0.8-1.4,1.3-2.5,1.9-3.5c0.3-0.4,0.9-0.8,1.4-0.9
		c0.9-0.2,2.1-0.5,2.9-0.2c2.9,1.1,5.7,2.3,8.5,3.6c0.5,0.2,0.8,1,1.2,1.5C322.3,328.5,322.2,328.7,322.1,328.8z"/>
	<path class="st0" d="M287.6,356.3c3.1,0.6,6.3,1.2,9.9,1.9c-1.6,1.1-2.7,2-3.9,2.7c-1.2,0.7-2.6,0.6-3.5-0.5
		c-1-1.2-1.9-2.5-2.8-3.7C287.3,356.6,287.4,356.5,287.6,356.3z"/>
	<path class="st0" d="M308,177.6c-3.1,0.3-5.5,0.6-8,0.8c-3,0.3-6.1,0.4-9.1,0.7c-1.3,0.1-2.4-0.1-3.2-1.2c-0.4-0.5-1-0.9-1.4-1.5
		c-0.4-0.6-0.6-1.3-1-2.2c1.9-0.3,3.4-0.6,5-0.8c3.4-0.5,6.8-1,10.1-1.4c0.6-0.1,1.5-0.1,1.9,0.2C304.1,173.9,305.8,175.6,308,177.6
		z"/>
	<path class="st0" d="M298.8,189.6c2.6-0.3,4.8-0.5,7-0.7c2.9-0.3,5.9-0.5,8.8-0.9c1.2-0.2,2,0.2,2.7,1.2c0.9,1.4,1.9,2.7,3.1,4.4
		c-2.8,0.3-5.2,0.6-7.7,0.8c-2.7,0.2-5.4,0.3-8.2,0.5c-1,0.1-1.7-0.2-2.3-1C301.3,192.5,300.1,191.2,298.8,189.6z"/>
	<path class="st0" d="M292.9,182.8c2.3-0.3,4.6-0.5,6.9-0.8c3.1-0.4,6.3-0.9,9.4-1.3c0.8-0.1,1.5-0.1,2,0.6c0.9,1.3,1.9,2.5,3.1,4.1
		c-2.6,0.3-4.9,0.6-7.2,0.9c-3.1,0.3-6.2,0.6-9.3,0.9c-0.9,0.1-1.6,0-2.2-0.7c-1-1.1-2-2-3-3C292.8,183.1,292.8,183,292.9,182.8z"/>
	<path class="st0" d="M306.2,198.4c5.5-0.3,10.6-0.7,15.7-1c0.1,1.2-0.4,1.9-1.3,2.3c-2.5,1.1-4.9,2.3-7.4,3.3
		c-2.3,0.9-4.3,0-5.7-2.2C307.1,200.1,306.7,199.4,306.2,198.4z"/>
	<path class="st0" d="M297.3,168c-3.7,0.7-6.9,1.3-10.1,2c-0.1-0.1-0.2-0.3-0.3-0.4c1-1.3,2-2.8,3.1-4c0.9-0.9,2.2-1,3.3-0.3
		C294.5,166,295.6,166.9,297.3,168z"/>
	<path class="st0" d="M-5.8,512.1c1.3,0.1,2.6,0.1,3.9,0.2c1.2,0,1.9,0.6,1.9,1.8c0,2.4,0,4.8,0,7.3c0,1-0.5,1.8-1.6,1.8
		c-2.8,0-5.6,0-8.4,0c-0.9,0-1.5-0.5-1.5-1.4c0-2.6-0.1-5.3,0-7.9c0-1,0.7-1.4,1.7-1.5C-8.5,512.3-7.2,512.2-5.8,512.1z"/>
	<path class="st0" d="M130.6,491.7c-0.7-3.1-0.6-5.9-0.3-8.7c0.1-1.1,0.5-1.8,1.8-1.8c2.6,0,5.3-0.1,7.9,0c1.6,0.1,1.8,0.3,1.8,2
		c0.1,2.3,0,4.7,0,7c0,0.9-0.4,1.6-1.4,1.7C137.1,492.3,133.9,492.4,130.6,491.7z"/>
	<path class="st0" d="M169.2,521.6c1.5,0.1,2.7,0.2,4,0.3c1,0.1,1.5,0.6,1.5,1.6c0,2.6,0,5.1,0,7.7c0,0.9-0.6,1.4-1.4,1.4
		c-2.9,0-5.7,0-8.6,0c-1,0-1.5-0.7-1.5-1.7c0-2.5,0-5,0-7.5c0-1,0.5-1.5,1.5-1.6C166.3,521.8,167.8,521.6,169.2,521.6z"/>
	<path class="st0" d="M-147.3,332.3c3.3,0.1,6,2.9,6,6.2c-0.1,3.3-3,6-6.2,5.9c-3.2-0.1-5.9-2.9-5.9-6.1
		C-153.4,335-150.6,332.3-147.3,332.3z"/>
	<path class="st0" d="M-97,338.4c0-3.4,2.7-6.1,6.1-6c3.3,0.1,5.9,2.7,5.9,6c0,3.3-2.6,6-5.8,6.1C-94.2,344.5-97,341.8-97,338.4z"/>
	<path class="st0" d="M-34.7,332.3c3.3,0,6,2.8,6,6.1c0,3.2-2.7,5.9-5.9,6c-3.3,0.1-6.1-2.7-6.1-6C-40.7,335.1-38,332.3-34.7,332.3z
		"/>
	<path class="st0" d="M15.6,338.3c0-3.3,2.9-6,6.2-6c3.3,0.1,5.9,2.7,5.9,6c0,3.3-2.7,6.1-6.1,6.1C18.3,344.4,15.6,341.6,15.6,338.3
		z"/>
	<path class="st0" d="M468.7,367.8c0,2.3,0,4.5,0,7c-2.5,0.6-5,0.4-7.6,0.2c-0.9-2.2-0.6-4.5-0.3-6.7c0-0.3,0.6-0.7,1-0.8
		C464.1,367.3,466.3,367.1,468.7,367.8z"/>
	<path class="st0" d="M437.8,339.1c2.6,0,5,0,7.4,0c0.9,2.4,0.6,4.7,0.3,7.2c-2.5,0.8-5,0.5-7.6,0.2
		C437.2,344,437.3,341.7,437.8,339.1z"/>
	<path class="st0" d="M626.1,191.4c-8.6,0-15.5-6.8-15.6-15.3c0-8.6,6.8-15.5,15.4-15.5c8.5,0,15.5,7,15.5,15.5
		C641.5,184.5,634.6,191.3,626.1,191.4z M626.7,163.4c-5.6,0.2-9.3,2.4-11.8,6.7c-0.4,0.6-0.7,1.5-0.6,2.1c0.4,2.5,1,4.9,2.5,7
		c1.5,2.3,5.7,4,8.2,3.4c7.4-2,10.3-11.9,5.8-16.8C629.5,164.3,628.2,163,626.7,163.4z"/>
	<path class="st0" d="M718.7,354c3.2,0.2,6.5,0.3,9.7,0.4c2.6,0.1,5.1,0,7.7,0.1c5.5,0.1,11.1,0.4,16.6,0.5
		c17.2,0.2,34.3,0.3,51.5,0.4c3.5,0,7,0,10.5,0.1c-17.6,1.3-35.2,0.8-52.8,0.7c-10.8-0.1-21.7-0.8-32.5-1.3
		c-3.5-0.2-7.1-0.4-10.6-0.7C718.7,354.2,718.7,354.1,718.7,354z"/>
	<path class="st0" d="M708.4,353.8c2,0,4,0,6,0v0.1c-2,0-4.1,0-6.1,0L708.4,353.8z"/>
	<path class="st1" d="M190.5,74.7c-2.3,0-21.1-6.2-24-8c-0.3-0.2-0.5-0.6-1.1-1.4c3.6,0.4,6.6,0.7,9.9,1c-0.1-1.3-0.9-2-1.5-2.8
		c-2.6-3.1-5.2-6.1-7.8-9.2c-0.6-0.7-1.3-1.5-1.1-2.9c0.8,0.4,1.5,0.8,2.2,1.2c2,1.4,3.9,2.9,5.9,4.2c1.8,1.3,3.7,2.4,5.5,3.6
		c0.6,0.4,1.3,0.6,2.3,1.1c-1.3-5.3-4.1-9.7-3.5-15.2c0.5,0.5,1.1,0.9,1.4,1.5c3.8,7.7,7.6,15.5,11.4,23.3
		C190.8,72.9,190.7,73.2,190.5,74.7z"/>
	<path class="st1" d="M156.6,70c-5,1.9-11.2-1.3-12.3-6c-0.4-1.6-0.1-3.2,0.7-4.6c0.9-1.5,2-3,3.2-4.4c0.9-1,1.1-1.8,0.9-3
		c-0.4-1.9-0.7-3.9-0.9-5.8c-0.2-2.1,0.5-3.9,1.9-5.4c2.9-3.3,6.3-5.5,10.9-5c0.9,0.1,1.5-0.2,1.9-0.9c0.1-0.1,0.2-0.2,0.3-0.4
		c3.5-4.8,7.7-5.3,13.2-2.5c1.9,1,2.8,2.6,2.5,5.1c-0.8-0.4-1.5-0.7-2.1-1c-1.9-1.1-4-1.4-6.2-1.3c-1.9,0.1-3.3,1-4.1,2.8
		c-0.7,1.5-1.5,3-2.3,4.6c-1.3-0.4-2.4-0.8-3.6-1.1c-3.3-0.9-5.6,0.1-7.3,3c-1.5,2.8-1.9,5.7-0.4,8.7c0.1,0.3,0.2,0.6,0.3,0.8
		c0.6,1.5,0.5,1.9-1.1,2.7c-0.7,0.3-1.4,0.6-2.1,1c-1.9,1-2.9,2.6-3.3,4.6c-0.4,2.4,0.4,4.2,2.4,5.4c1.2,0.7,2.5,1.2,3.7,1.7
		C154.1,69.4,155.1,69.6,156.6,70z"/>
	<path class="st1" d="M167.5,22.6c-0.8-0.9-1.4-1.6-2-2.3c-3.7-3.9-9.2-4.2-13.3-0.7c-1.8,1.5-2.8,3.4-2.7,5.7c0,0.6,0,1.2,0.1,1.8
		c0,1.7-0.4,2.1-2.2,1.8c-0.8-0.1-1.6-0.4-2.4-0.6c-4.2-0.8-8.3,2.3-8.6,6.5c-0.1,1.1,0.4,2.2,0.8,3.2c0.4,1.2,1.1,2.3,1.5,3.5
		c0.4,1.2,0.1,1.8-1.2,2.3c-0.7,0.3-1.5,0.4-2.2,0.6c-0.9,0.3-1.9,0.6-2.7,1.2c-1.9,1.2-2.4,3.2-1.5,5.2c1,2.2,2.7,3.8,5,4.8
		c0.7,0.3,1.4,0.5,2.4,1c-2.2,1-4,0.7-5.7-0.3c-2-1.2-3.4-3-4.3-5.1c-0.9-2.1-0.6-4.1,0.9-5.8c1.3-1.5,2.9-2.9,4.5-4.6
		c-0.2-0.7-0.5-1.7-0.9-2.7c-0.9-2.2-1-4.3,0.2-6.3c0.7-1.3,1.3-2.6,2.2-3.7c2-2.7,5-3.6,8.2-3.6c0.7,0,1.3,0,2.2,0
		c0.7-4.4,3.4-7.4,7.1-9.5c2.1-1.2,4.3-0.9,6.4-0.4C164.2,15.5,167.5,18.6,167.5,22.6z"/>
	<path class="st1" d="M122.8,41.7c-1.4,0.1-2.5-0.8-2.6-2.3c-0.1-1.4,0.9-2.5,2.2-2.6c1.3-0.1,2.5,0.9,2.6,2.3
		C125.2,40.5,124.2,41.6,122.8,41.7z"/>
	<path class="st1" d="M140.5,37.9c-0.2-1.2,0.7-2.5,1.9-2.7c1.2-0.2,2.5,0.7,2.7,1.9c0.2,1.2-0.7,2.5-1.9,2.7
		C141.9,40,140.7,39.1,140.5,37.9z"/>
	<path class="st1" d="M133.8,68.9c0.2,1.3-0.5,2.3-1.7,2.4c-1.1,0.1-2.1-0.6-2.3-1.7c-0.2-1.2,0.6-2.3,1.8-2.4
		C132.7,67.1,133.6,67.8,133.8,68.9z"/>
	<path class="st1" d="M170,44.7c0.9-0.1,1.6,0.5,1.7,1.4c0.1,0.9-0.4,1.6-1.3,1.8c-1,0.2-1.8-0.5-1.9-1.5
		C168.5,45.5,169.1,44.8,170,44.7z"/>
	<path class="st1" d="M143.3,17.2c0.2,1.3-0.5,2.1-1.4,2.1c-0.9,0-1.4-0.5-1.6-1.3c-0.2-0.9,0.5-1.8,1.4-1.7
		C142.3,16.4,142.9,17,143.3,17.2z"/>
	<path class="st1" d="M157.1,26.1c0.3-0.3,0.7-1,1.2-1.3c0.7-0.4,1.7,0.4,1.8,1.2c0.1,0.8-0.5,1.6-1.4,1.7
		C157.9,27.8,157.4,27.3,157.1,26.1z"/>
	<path class="st1" d="M142.9,51.3c-0.6,0.6-1,1.2-1.3,1.2c-0.4,0-0.8-0.4-1-0.8c-0.1-0.1,0.4-0.8,0.7-0.9
		C141.6,50.7,142.1,51,142.9,51.3z"/>
	<path class="st1" d="M164.4,59.6c-0.6,0.5-0.9,1.1-1.3,1.1c-0.3,0-1-0.4-1-0.7c0-0.3,0.4-1,0.7-1.1
		C163.2,58.8,163.7,59.2,164.4,59.6z"/>
	<path class="st1" d="M149.1,3c0.5,0.6,1,1,1,1.3c0,0.4-0.5,0.7-0.8,1.1c-0.4-0.3-0.9-0.6-1-0.9C148.2,4.2,148.7,3.7,149.1,3z"/>
	<rect x="-213.6" y="278.1" class="st2" width="1280" height="389.9"/>
</g>
<g>
	<path class="st1" d="M762.9,151.3c0.4-1.5,0.8-2.5,0.9-3.6c0.4-3,0.1-6-0.6-8.9c-1.2-5.2-3.3-10.1-6.1-14.7
		c-0.4-0.7-0.9-1.4-1.5-1.8c-0.4-0.3-1.3-0.3-1.7,0c-0.3,0.2-0.5,1-0.4,1.5c0,0.5,0.3,1.1,0.6,1.6c4.5,7.7,7.4,15.9,8.3,24.8
		C762.3,150.4,762.5,150.6,762.9,151.3z"/>
	<path class="st1" d="M762.7,121.3c1.5-1.5,1.4-2.7,0.5-4c-2.6-3.8-5.5-7.3-9.1-10.2c-0.9-0.8-2.1-1.2-3.2-1.8
		c-0.1,0.1-0.2,0.3-0.3,0.4c1.2,1.4,2.5,2.8,3.6,4.3c2.1,2.8,4,5.6,6,8.4C761.1,119.4,761.9,120.2,762.7,121.3z"/>
	<path class="st1" d="M747.9,114.8c-0.7,1-0.5,2.2,0.3,2.6c0.7,0.4,1.5,0.6,2.1-0.2c0.6-0.7,0.3-2.1-0.5-2.4
		C749.2,114.6,748.4,114.8,747.9,114.8z"/>
	<path class="st1" d="M767.2,127c0.1,0.8,0.1,1.7,0.4,2.4c0.3,0.9,1.2,1.1,2,0.6c0.8-0.5,0.9-1.3,0.4-2.1
		C769.4,127.1,768.7,126.6,767.2,127z"/>
</g>
</svg>
